<svg width="11" height="10" viewBox="0 0 11 10" fill="none" xmlns="http://www.w3.org/2000/svg">
<path d="M5.49985 8.62695C5.13009 8.62695 4.82812 8.92738 4.82812 9.29868C4.82812 9.66998 5.12855 9.96887 5.49985 9.96887C5.87114 9.96887 6.17157 9.66844 6.17157 9.29868C6.17157 8.92892 5.87114 8.62695 5.49985 8.62695Z" fill="white"/>
<path d="M6.17157 7.27915C6.17157 6.90939 5.87114 6.60742 5.49985 6.60742C5.12855 6.60742 4.82812 6.90785 4.82812 7.27915C4.82812 7.65045 5.12855 7.94933 5.49985 7.94933C5.87114 7.94933 6.17157 7.64891 6.17157 7.27915Z" fill="white"/>
<path d="M8.18976 7.27915C8.18976 6.90939 7.88933 6.60742 7.51803 6.60742C7.14674 6.60742 6.84631 6.90785 6.84631 7.27915C6.84631 7.65045 7.14674 7.94933 7.51803 7.94933C7.88933 7.94933 8.18976 7.64891 8.18976 7.27915Z" fill="white"/>
<path d="M10.2096 5.25766C10.2096 4.88791 9.90916 4.58594 9.53787 4.58594C9.16657 4.58594 8.86614 4.88637 8.86614 5.25766C8.86614 5.62896 9.16657 5.92785 9.53787 5.92785C9.90916 5.92785 10.2096 5.62742 10.2096 5.25766Z" fill="white"/>
<path d="M4.15173 7.27915C4.15173 6.90939 3.8513 6.60742 3.48 6.60742C3.10871 6.60742 2.80828 6.90785 2.80828 7.27915C2.80828 7.65045 3.10871 7.94933 3.48 7.94933C3.8513 7.94933 4.15173 7.64891 4.15173 7.27915Z" fill="white"/>
<path d="M6.17157 5.25766C6.17157 4.88791 5.87114 4.58594 5.49985 4.58594C5.12855 4.58594 4.82812 4.88637 4.82812 5.25766C4.82812 5.62896 5.12855 5.92785 5.49985 5.92785C5.87114 5.92785 6.17157 5.62742 6.17157 5.25766Z" fill="white"/>
<path d="M8.18976 5.25766C8.18976 4.88791 7.88933 4.58594 7.51803 4.58594C7.14674 4.58594 6.84631 4.88637 6.84631 5.25766C6.84631 5.62896 7.14674 5.92785 7.51803 5.92785C7.88933 5.92785 8.18976 5.62742 8.18976 5.25766Z" fill="white"/>
<path d="M4.15173 5.25766C4.15173 4.88791 3.8513 4.58594 3.48 4.58594C3.10871 4.58594 2.80828 4.88637 2.80828 5.25766C2.80828 5.62896 3.10871 5.92785 3.48 5.92785C3.8513 5.92785 4.15173 5.62742 4.15173 5.25766Z" fill="white"/>
<path d="M2.13348 5.25766C2.13348 4.88791 1.83306 4.58594 1.46176 4.58594C1.09046 4.58594 0.790032 4.88637 0.790032 5.25766C0.790032 5.62896 1.09046 5.92785 1.46176 5.92785C1.83306 5.92785 2.13348 5.62742 2.13348 5.25766Z" fill="white"/>
<path d="M10.2096 3.24009C10.2096 2.87033 9.90916 2.56836 9.53787 2.56836C9.16657 2.56836 8.86614 2.86879 8.86614 3.24009C8.86614 3.61138 9.16657 3.91027 9.53787 3.91027C9.90916 3.91027 10.2096 3.60984 10.2096 3.24009Z" fill="white"/>
<path d="M8.18976 3.24009C8.18976 2.87033 7.88933 2.56836 7.51803 2.56836C7.14674 2.56836 6.84631 2.86879 6.84631 3.24009C6.84631 3.61138 7.14674 3.91027 7.51803 3.91027C7.88933 3.91027 8.18976 3.60984 8.18976 3.24009Z" fill="white"/>
<path d="M4.15173 3.24009C4.15173 2.87033 3.8513 2.56836 3.48 2.56836C3.10871 2.56836 2.80828 2.86879 2.80828 3.24009C2.80828 3.61138 3.10871 3.91027 3.48 3.91027C3.8513 3.91027 4.15173 3.60984 4.15173 3.24009Z" fill="white"/>
<path d="M2.13348 3.24009C2.13348 2.87033 1.83306 2.56836 1.46176 2.56836C1.09046 2.56836 0.790032 2.86879 0.790032 3.24009C0.790032 3.61138 1.09046 3.91027 1.46176 3.91027C1.83306 3.91027 2.13348 3.60984 2.13348 3.24009Z" fill="white"/>
<path d="M10.2097 1.22055C10.2097 0.850797 9.90929 0.548828 9.53799 0.548828C9.16669 0.548828 8.86626 0.849256 8.86626 1.22055C8.86626 1.59185 9.16669 1.89074 9.53799 1.89074C9.90929 1.89074 10.2097 1.59031 10.2097 1.22055Z" fill="white"/>
<path d="M2.13348 1.22055C2.13348 0.850797 1.83306 0.548828 1.46176 0.548828C1.09046 0.548828 0.790032 0.849256 0.790032 1.22055C0.790032 1.59185 1.09046 1.89074 1.46176 1.89074C1.83306 1.89074 2.13348 1.59031 2.13348 1.22055Z" fill="white"/>
</svg>
