<svg width="63" height="38" viewBox="0 0 63 38" fill="none" xmlns="http://www.w3.org/2000/svg">
<g clip-path="url(#clip0_817_710)">
<path d="M18.1211 13.8636C18.1211 14.6361 18.2026 15.2625 18.3454 15.7218C18.5086 16.1811 18.7125 16.6822 18.998 17.2251C19.1 17.3921 19.1408 17.5592 19.1408 17.7053C19.1408 17.9141 19.0184 18.1229 18.7533 18.3317L17.4684 19.2086C17.2849 19.3339 17.1013 19.3965 16.9382 19.3965C16.7342 19.3965 16.5303 19.2921 16.3263 19.1042C16.0408 18.791 15.7961 18.457 15.5921 18.1229C15.3882 17.768 15.1842 17.3713 14.9599 16.891C13.3691 18.8119 11.3704 19.7723 8.96383 19.7723C7.25067 19.7723 5.88422 19.2713 4.88488 18.2691C3.88554 17.2669 3.37567 15.9306 3.37567 14.2603C3.37567 12.4855 3.98751 11.0449 5.23159 9.95916C6.47567 8.87345 8.12764 8.33059 10.2283 8.33059C10.9217 8.33059 11.6355 8.39323 12.3901 8.49762C13.1447 8.60202 13.9198 8.76905 14.7355 8.95697V7.43279C14.7355 5.84598 14.4092 4.73938 13.777 4.09213C13.1244 3.44488 12.023 3.13169 10.4526 3.13169C9.73883 3.13169 9.00462 3.21521 8.25001 3.40312C7.49541 3.59103 6.7612 3.8207 6.04738 4.11301C5.72107 4.25916 5.47633 4.34268 5.33357 4.38444C5.1908 4.4262 5.08883 4.44707 5.00725 4.44707C4.72172 4.44707 4.57896 4.23828 4.57896 3.79982V2.77674C4.57896 2.44268 4.61975 2.19213 4.72172 2.04598C4.8237 1.89982 5.00725 1.75367 5.29278 1.60751C6.00659 1.23169 6.86317 0.918503 7.86251 0.667954C8.86186 0.396525 9.92238 0.27125 11.0441 0.27125C13.4711 0.27125 15.2454 0.834987 16.3875 1.96246C17.5092 3.08993 18.0803 4.80202 18.0803 7.09872V13.8636H18.1211ZM9.8408 17.0372C10.5138 17.0372 11.2073 16.9119 11.9415 16.6614C12.6757 16.4108 13.3283 15.9515 13.879 15.3251C14.2053 14.9284 14.45 14.4899 14.5724 13.9888C14.6948 13.4877 14.7763 12.8822 14.7763 12.1723V11.2954C14.1849 11.1493 13.5526 11.024 12.9 10.9405C12.2474 10.857 11.6151 10.8152 10.9829 10.8152C9.61646 10.8152 8.61712 11.0866 7.94409 11.6504C7.27107 12.2141 6.94475 13.0075 6.94475 14.0515C6.94475 15.0328 7.18949 15.7636 7.69936 16.2647C8.18883 16.7866 8.90264 17.0372 9.8408 17.0372ZM26.2178 19.2921C25.8507 19.2921 25.6059 19.2295 25.4428 19.0833C25.2796 18.9581 25.1369 18.6658 25.0145 18.2691L20.2217 2.12949C20.0994 1.71191 20.0382 1.44048 20.0382 1.29433C20.0382 0.960261 20.2013 0.772349 20.5276 0.772349H22.5263C22.9138 0.772349 23.179 0.834987 23.3217 0.981141C23.4849 1.10642 23.6073 1.39872 23.7296 1.79543L27.1559 15.6174L30.3375 1.79543C30.4395 1.37784 30.5619 1.10642 30.725 0.981141C30.8882 0.855866 31.1737 0.772349 31.5408 0.772349H33.1724C33.5599 0.772349 33.825 0.834987 33.9882 0.981141C34.1513 1.10642 34.2941 1.39872 34.3757 1.79543L37.598 15.7844L41.1263 1.79543C41.2487 1.37784 41.3915 1.10642 41.5342 0.981141C41.6974 0.855866 41.9625 0.772349 42.3296 0.772349H44.2263C44.5526 0.772349 44.7362 0.939382 44.7362 1.29433C44.7362 1.39872 44.7158 1.50312 44.6954 1.62839C44.675 1.75367 44.6342 1.9207 44.5526 2.15037L39.6375 18.2899C39.5151 18.7075 39.3724 18.9789 39.2092 19.1042C39.0461 19.2295 38.7809 19.313 38.4342 19.313H36.6803C36.2928 19.313 36.0276 19.2504 35.8645 19.1042C35.7013 18.9581 35.5586 18.6866 35.477 18.2691L32.3158 4.80202L29.175 18.2482C29.073 18.6658 28.9507 18.9372 28.7875 19.0833C28.6244 19.2295 28.3388 19.2921 27.9717 19.2921H26.2178ZM52.425 19.8559C51.3645 19.8559 50.304 19.7306 49.2842 19.48C48.2645 19.2295 47.4691 18.9581 46.9388 18.6449C46.6125 18.457 46.3882 18.2482 46.3066 18.0603C46.225 17.8724 46.1842 17.6636 46.1842 17.4756V16.4108C46.1842 15.9723 46.3474 15.7636 46.6533 15.7636C46.7757 15.7636 46.898 15.7844 47.0204 15.8262C47.1428 15.868 47.3263 15.9515 47.5303 16.035C48.2237 16.3482 48.9783 16.5987 49.7737 16.7658C50.5895 16.9328 51.3849 17.0163 52.2007 17.0163C53.4855 17.0163 54.4849 16.7866 55.1783 16.3273C55.8717 15.868 56.2388 15.1998 56.2388 14.3438C56.2388 13.7592 56.0553 13.2789 55.6882 12.8822C55.3211 12.4855 54.6276 12.1306 53.6283 11.7965L50.6711 10.857C49.1822 10.3767 48.0809 9.66685 47.4079 8.72729C46.7349 7.80861 46.3882 6.78554 46.3882 5.69982C46.3882 4.8229 46.5717 4.05037 46.9388 3.38224C47.3059 2.71411 47.7954 2.12949 48.4072 1.67015C49.0191 1.18993 49.7125 0.834987 50.5283 0.584437C51.3441 0.333888 52.2007 0.229492 53.098 0.229492C53.5467 0.229492 54.0158 0.250371 54.4645 0.313009C54.9336 0.375646 55.3619 0.459162 55.7901 0.542679C56.198 0.647075 56.5855 0.75147 56.9526 0.876745C57.3197 1.00202 57.6053 1.12729 57.8092 1.25257C58.0947 1.4196 58.2987 1.58664 58.4211 1.77455C58.5434 1.94158 58.6046 2.17125 58.6046 2.46356V3.44488C58.6046 3.88334 58.4415 4.11301 58.1355 4.11301C57.9724 4.11301 57.7072 4.02949 57.3605 3.86246C56.198 3.3196 54.8928 3.04817 53.4447 3.04817C52.2822 3.04817 51.3645 3.23609 50.7323 3.63279C50.1 4.02949 49.7737 4.63499 49.7737 5.49103C49.7737 6.07565 49.9776 6.57675 50.3855 6.97345C50.7934 7.37015 51.548 7.76686 52.629 8.1218L55.525 9.06136C56.9934 9.54158 58.054 10.2097 58.6862 11.0658C59.3184 11.9218 59.6244 12.9031 59.6244 13.9888C59.6244 14.8866 59.4408 15.7009 59.0941 16.4108C58.727 17.1207 58.2375 17.7471 57.6053 18.2482C56.973 18.7702 56.2184 19.146 55.3415 19.4174C54.4237 19.7097 53.4651 19.8559 52.425 19.8559Z" fill="#707382"/>
<path fill-rule="evenodd" clip-rule="evenodd" d="M56.2796 30.0033C49.5698 35.0769 39.8211 37.7703 31.4388 37.7703C19.6915 37.7703 9.10661 33.3231 1.11187 25.9318C0.479634 25.3472 1.05069 24.5538 1.80529 25.0132C10.4527 30.1494 21.1191 33.2604 32.1527 33.2604C39.5967 33.2604 47.775 31.6736 55.3007 28.4165C56.4224 27.8945 57.381 29.1681 56.2796 30.0033Z" fill="#C4C7D6"/>
<path fill-rule="evenodd" clip-rule="evenodd" d="M59.0737 26.7464C58.2171 25.6189 53.404 26.2035 51.2217 26.475C50.5691 26.5585 50.4671 25.9739 51.0586 25.5354C54.8928 22.7794 61.1947 23.5728 61.929 24.4915C62.6632 25.431 61.725 31.8827 58.1355 34.9728C57.5849 35.453 57.0546 35.2024 57.2994 34.5761C58.1151 32.509 59.9303 27.853 59.0737 26.7464Z" fill="#C4C7D6"/>
</g>
<defs>
<clipPath id="clip0_817_710">
<rect width="62" height="38" fill="white" transform="translate(0.5)"/>
</clipPath>
</defs>
</svg>
