<svg width="101" height="29" viewBox="0 0 101 29" fill="none" xmlns="http://www.w3.org/2000/svg">
<g clip-path="url(#clip0_12_1754)">
<path d="M26.5179 0.300781H31.1179V28.7007H26.5179V0.300781Z" fill="#282D3C"/>
<path d="M47.1179 19.7C47.1179 24.1 43.5179 24.5 42.3179 24.5C39.5179 24.5 39.1179 21.9 39.1179 20.5V9.5H34.5179V20.3C34.5179 22.9 35.3179 25.3 36.9179 26.7C38.3179 28.1 40.1179 28.7 42.3179 28.7C43.9179 28.7 45.9179 28.3 47.1179 27.1V28.7H51.7179V9.5H47.1179V19.7Z" fill="#282D3C"/>
<path d="M60.7179 2.5H56.1179V9.5H52.7179V13.9H56.1179V28.7H60.7179V13.9H64.1179V9.5H60.7179V2.5Z" fill="#282D3C"/>
<path d="M78.5179 22.8996C77.5179 23.6996 76.1179 24.2996 74.7179 24.2996C71.5179 24.2996 69.3179 21.8996 69.3179 18.6996C69.3179 15.4996 71.5179 13.2996 74.7179 13.2996C76.1179 13.2996 77.5179 13.6996 78.5179 14.6996L79.1179 15.2996L82.3179 12.2996L81.5179 11.6996C79.7179 10.0996 77.3179 9.09961 74.7179 9.09961C69.1179 9.09961 64.9179 13.2996 64.9179 18.8996C64.9179 24.4996 69.1179 28.6996 74.7179 28.6996C77.3179 28.6996 79.7179 27.6996 81.5179 26.0996L82.3179 25.4996L79.1179 22.2996L78.5179 22.8996Z" fill="#282D3C"/>
<path d="M98.5179 11.1008C97.1179 9.70078 95.7179 9.10078 93.5179 9.10078C91.9179 9.10078 90.3179 9.50078 89.1179 10.7007V0.300781H84.5179V28.7007H89.1179V18.1008C89.1179 13.7008 92.1179 13.3007 93.3179 13.3007C96.1179 13.3007 95.9179 15.9007 95.9179 17.3007V28.5008H100.518V17.5008C100.518 14.9008 99.9179 12.5008 98.5179 11.1008Z" fill="#282D3C"/>
<path d="M74.5179 22.1012C76.2852 22.1012 77.7179 20.6685 77.7179 18.9012C77.7179 17.1339 76.2852 15.7012 74.5179 15.7012C72.7506 15.7012 71.3179 17.1339 71.3179 18.9012C71.3179 20.6685 72.7506 22.1012 74.5179 22.1012Z" fill="#EF4335"/>
<path d="M20.1179 21.6998C18.5179 23.2998 16.1179 24.2998 13.5179 24.2998C8.51794 24.2998 4.91794 20.2998 4.91794 14.8998C4.91794 9.49978 8.51794 5.49979 13.7179 5.49979C16.1179 5.49979 18.5179 6.49978 20.3179 8.29978L20.9179 8.89978L23.9179 5.89978L23.3179 5.29978C20.7179 2.69978 17.3179 1.29978 13.7179 1.29978C6.11794 1.09978 0.517944 7.09978 0.517944 14.8998C0.517944 22.6998 6.11794 28.6998 13.5179 28.6998C17.1179 28.6998 20.7179 27.2998 23.1179 24.6998L23.7179 24.0998L20.7179 21.0998L20.1179 21.6998Z" fill="#282D3C"/>
</g>
<defs>
<clipPath id="clip0_12_1754">
<rect width="100" height="29" fill="white" transform="translate(0.517944)"/>
</clipPath>
</defs>
</svg>
