<svg width="145" height="98" viewBox="0 0 145 98" fill="none" xmlns="http://www.w3.org/2000/svg">
<path d="M145 67.553C145 85.5707 129.27 97.8685 112.396 97.8685C88.0868 97.8685 76.3609 79.5648 76.3609 58.6871C76.3609 31.8035 96.0947 0.629883 132.416 0.629883V3.77583C105.247 3.77583 88.0868 22.9376 88.0868 40.9553C88.0868 42.9573 88.0868 44.1013 88.9448 44.1013C91.2327 44.1013 97.5246 37.2374 111.824 37.2374C129.842 37.2374 145 50.6792 145 67.553ZM68.6391 67.553C68.6391 85.5707 52.9093 97.8685 36.0355 97.8685C11.7258 97.8685 0 79.5648 0 58.6871C0 31.8035 19.7337 0.629883 56.0552 0.629883V3.77583C28.8856 3.77583 11.7258 22.9376 11.7258 40.9553C11.7258 42.9573 11.7258 44.1013 12.5838 44.1013C14.8718 44.1013 21.1637 37.2374 35.4635 37.2374C52.0513 37.2374 68.6391 50.6792 68.6391 67.553Z" fill="#DEE1F0" fill-opacity="0.25"/>
</svg>
