<svg width="28" height="36" viewBox="0 0 28 36" fill="none" xmlns="http://www.w3.org/2000/svg">
<g clip-path="url(#clip0_68_453)">
<path d="M24.3858 13.1426C24.2619 13.0168 24.0622 12.9531 23.7857 12.9531H21.2031C21.1156 12.9491 21.0288 12.971 20.953 13.016C20.8826 13.062 20.8298 13.1316 20.8036 13.2128L20.134 14.9999C20.0431 15.2333 19.9673 15.4726 19.9071 15.7162C19.8614 15.8936 19.8367 16.0759 19.8336 16.2593V17.3693H16.8467V6.32823C16.8467 6.04563 16.7846 5.84116 16.6605 5.71484C16.5367 5.58905 16.3409 5.52534 16.0604 5.52534H12.678C12.4016 5.52534 12.1986 5.58905 12.078 5.71484C11.9573 5.84062 11.8926 6.04563 11.8926 6.32823V7.56155H12.4935C12.7699 7.56155 12.97 7.62472 13.0936 7.75105C13.2166 7.87765 13.2789 8.08184 13.2789 8.36444V15.2547C13.2789 15.5373 13.2166 15.7448 13.0936 15.8681C12.9705 15.9914 12.7699 16.0576 12.4935 16.0576H11.8934V20.7802C11.8934 21.0628 11.9552 21.2672 12.0788 21.3936C12.2023 21.5199 12.4024 21.5831 12.6788 21.5831H13.2789V19.0274C13.2789 18.7456 13.3405 18.5373 13.4643 18.414C13.5882 18.2907 13.7879 18.2245 14.0644 18.2245H17.4476C17.7241 18.2245 17.927 18.2882 18.0477 18.414C18.1683 18.5398 18.2339 18.7456 18.2339 19.0274V19.9389H24.5727V13.7559C24.5717 13.4733 24.5094 13.2689 24.3858 13.1426Z" fill="black"/>
<path d="M27.0643 20.1294C26.9413 20.0028 26.7407 19.9391 26.4642 19.9391H24.5713V20.7828C24.5713 21.0654 24.5095 21.2699 24.3859 21.3962C24.2623 21.5225 24.0623 21.5857 23.7858 21.5857H18.2324V33.482C18.2324 33.7646 18.1701 33.972 18.0462 34.0954C17.9223 34.2187 17.7226 34.2857 17.4477 34.2857H15.9463V35.1972C15.9463 35.4798 16.0078 35.6872 16.1317 35.8106C16.2555 35.9339 16.4553 36.0009 16.7286 36.0009H20.111C20.3874 36.0009 20.5875 35.9377 20.711 35.8114C20.8349 35.6856 20.8964 35.4847 20.8964 35.198V30.8038H24.1238C24.2079 30.8063 24.291 30.7845 24.3635 30.7409C24.4311 30.6934 24.4812 30.6241 24.5057 30.544L25.1761 28.7569C25.2663 28.5232 25.3421 28.284 25.4031 28.0406C25.4482 27.8631 25.4726 27.6808 25.4758 27.4975V27.3243C25.4758 27.0417 25.4143 26.8343 25.2904 26.7109C25.1666 26.5876 24.9668 26.5214 24.6903 26.5214H20.8996V24.1994H26.4642C26.7407 24.1994 26.9437 24.1365 27.0643 24.0099C27.185 23.8833 27.2505 23.6791 27.2505 23.3965V20.742C27.2505 20.4602 27.1882 20.2552 27.0643 20.1294Z" fill="black"/>
<path d="M16.7288 19.9391C16.4524 19.9391 16.2494 20.0028 16.1287 20.1286C16.0081 20.2544 15.9434 20.4602 15.9434 20.742V21.5857H18.2294V19.9391H16.7288Z" fill="black"/>
<path d="M1.10072 5.79906L2.99927 0.735074C3.06791 0.507683 3.21022 0.310944 3.4028 0.177219C3.61787 0.0499264 3.86406 -0.0118537 4.11235 -0.000836831H11.0737C11.3494 -0.000836831 11.5531 0.0620545 11.6738 0.188654C11.7945 0.315254 11.8592 0.515363 11.8592 0.802049V3.49739C11.8592 3.78 11.7968 3.98746 11.6738 4.11079C11.5507 4.23412 11.3494 4.30028 11.0737 4.30028H6.53428C6.08362 4.30028 5.74908 4.39339 5.53067 4.57962C5.31227 4.76584 5.20306 5.04463 5.20306 5.41599V10.7471C5.20306 11.1184 5.28696 11.3937 5.45477 11.5728C5.62257 11.752 5.87347 11.841 6.20747 11.8399H8.32416V8.36045C8.32416 8.07785 8.38596 7.87338 8.50954 7.74705C8.6326 7.62046 8.83316 7.55756 9.10963 7.55756H11.8919V16.0602H5.62097C3.80232 16.0602 2.45299 15.6882 1.57296 14.9444C0.692941 14.2006 0.25293 13.0555 0.25293 11.5091V9.36834C0.262269 8.84854 0.332008 8.33171 0.460683 7.82873C0.632937 7.13896 0.84778 6.46105 1.10392 5.79906H1.10072Z" fill="black"/>
<path d="M9.63337 19.0274C9.63337 18.7456 9.57185 18.5374 9.44799 18.414C9.32414 18.2907 9.12438 18.2245 8.8479 18.2245H6.04243C5.95515 18.2207 5.86864 18.2426 5.79312 18.2874C5.72503 18.3346 5.67461 18.404 5.65009 18.4843L4.98209 20.2714C4.89155 20.5049 4.81575 20.7442 4.75515 20.9877C4.70942 21.1648 4.68473 21.3469 4.68164 21.53V31.6041V33.4826C4.68164 33.7653 4.74317 33.9727 4.86702 34.096C4.99087 34.2194 5.18664 34.2855 5.46711 34.2855H8.28058C8.36468 34.2881 8.44778 34.2663 8.52029 34.2226C8.58808 34.1753 8.63821 34.1059 8.66252 34.0258L9.33293 32.2387C9.4231 32.005 9.4989 31.7658 9.55986 31.5224C9.60499 31.3449 9.6294 31.1626 9.63258 30.9792V28.5289H13.2771V33.481C13.2771 33.7636 13.3388 33.9681 13.4624 34.0944C13.586 34.2207 13.7861 34.2839 14.0625 34.2839H15.9451V21.5856H13.2779V23.8676H9.63337V19.0274Z" fill="black"/>
</g>
<defs>
<clipPath id="clip0_68_453">
<rect width="27" height="36" fill="white" transform="translate(0.25)"/>
</clipPath>
</defs>
</svg>
