<svg width="22" height="41" viewBox="0 0 22 41" fill="none" xmlns="http://www.w3.org/2000/svg">
<g clip-path="url(#clip0_68_462)">
<path d="M18.7149 13.3999C18.9835 15.1166 19.4199 19.3666 17.7245 22.8999C16.3816 25.7499 15.4751 27.7166 15.0051 29.2999C14.9883 29.2999 14.9883 29.2999 14.9883 29.2999C14.9043 29.2999 14.8204 29.3166 14.7533 29.3166C14.065 29.3832 13.4943 28.6999 13.2089 28.2832C14.0818 27.7332 15.2401 26.6999 15.4079 24.9332C15.4415 24.6166 15.4751 24.3332 15.5087 24.0832C14.8876 24.3832 14.1657 24.2332 14.6861 23.9666C15.1729 23.7166 16.3312 21.9166 16.8012 21.1499C16.8012 21.1332 16.818 21.1166 16.818 21.1166C17.5398 20.0332 17.9763 18.7832 17.9763 18.7832C18.4463 17.5166 18.547 15.8166 18.5135 14.2666C18.4799 13.8666 18.5806 13.5832 18.7149 13.3999ZM11.5135 23.0332C11.2952 23.0832 11.0938 22.9499 11.0434 22.7499C10.9931 22.5332 11.1274 22.3332 11.3288 22.2832C11.547 22.2332 11.7485 22.3666 11.7988 22.5666C11.8492 22.7666 11.7317 22.9832 11.5135 23.0332ZM21.2497 3.21656C21.2329 1.43323 19.9067 -0.0167686 18.2952 -0.000101887C16.6837 0.0165648 15.3744 1.46656 15.3911 3.26656C15.4079 4.98323 16.6334 6.93323 18.1609 7.06656C18.0266 7.8499 17.8084 9.86656 18.4127 12.0999C16.9355 12.4999 16.818 14.4166 16.818 14.6499C15.8276 20.9166 12.7221 20.1832 12.7221 20.1832L12.7389 20.1999C11.8324 19.9332 10.8756 18.8166 8.39115 19.4332C6.83 19.8166 6.12496 20.7332 5.8228 21.3166C5.30242 21.1832 2.11297 20.4832 0.904337 21.7166C-0.119644 22.7499 0.0314355 25.9999 1.71009 27.4666C2.18012 27.8666 2.46549 28.2332 2.66693 28.5332C2.66693 28.5332 2.66693 28.5332 2.66693 28.5499C2.7005 28.5999 2.71729 28.6332 2.75086 28.6666C2.88515 28.8666 3.18731 29.2666 3.62376 29.5166C4.47988 29.9332 6.09139 30.3666 8.39115 29.5499C8.39115 29.5499 7.68611 30.3499 5.65494 30.4332C4.31201 30.4999 3.33839 30.1332 2.81801 29.8832C2.51585 30.4166 2.09618 30.9499 1.50865 31.6666C0.618966 32.7499 0.635752 33.9332 1.08899 34.9999C1.00506 35.1999 0.887551 35.3832 0.753258 35.5166C0.417527 35.8166 -0.119644 36.6166 1.12256 37.5666C2.38156 38.5166 2.66693 38.4832 3.25446 37.8666C3.28803 37.8332 3.30482 37.8166 3.3216 37.7999C3.69091 38.0999 4.06021 38.3166 4.36237 38.4666C4.42952 38.4999 4.49666 38.5332 4.5806 38.5666C4.41273 38.8832 4.27844 39.2166 4.29523 39.3999C4.3288 39.7999 5.16813 40.5666 6.20889 40.8499C7.24966 41.1332 7.65254 41.1666 8.10578 40.1166C8.39115 39.4666 8.89475 38.9832 9.24726 38.7166C10.3552 38.2499 11.4127 37.3332 12.2353 35.6832C12.6046 34.9499 12.8228 34.2499 12.9571 33.6166C13.3432 33.4499 14.0147 33.1999 14.5854 32.9999C14.6022 32.9999 14.619 32.9832 14.6525 32.9832C14.9715 35.6832 16.3816 35.9832 16.4487 35.9999L16.4823 35.7999C16.4655 35.7999 15.1394 35.5166 14.8372 32.9166C15.0051 32.8499 15.2569 32.7666 15.5758 32.6332H15.5926C15.6094 32.6166 15.6429 32.6166 15.6597 32.5999C16.4655 32.2666 16.5998 32.0166 16.1633 30.5166C15.9283 29.6999 15.559 29.4332 15.1897 29.3499C15.6597 27.7832 16.5494 25.8332 17.8923 23.0166C19.6549 19.2999 19.1346 14.8166 18.866 13.1999C18.8995 13.1666 18.9331 13.1499 18.9499 13.1332C19.0003 13.1166 19.0674 13.0832 19.1178 13.0499C19.2185 12.9832 19.2689 12.8499 19.1849 12.5499C19.0338 12.0499 18.8995 12.0499 18.8995 12.0499C18.7988 12.0499 18.6981 12.0666 18.5974 12.0832C17.9931 9.86656 18.2281 7.8499 18.3624 7.0999C19.9739 7.0499 21.2665 4.9999 21.2497 3.21656Z" fill="#F9BE2D"/>
</g>
<defs>
<clipPath id="clip0_68_462">
<rect width="21" height="41" fill="white" transform="translate(0.25)"/>
</clipPath>
</defs>
</svg>
