<svg width="109" height="24" viewBox="0 0 109 24" fill="none" xmlns="http://www.w3.org/2000/svg">
<path d="M11.9814 10.0376V1.73485H16.0731V22.6411H11.9814V13.9799H4.21625V22.6411H0.0947266V1.73485H4.21625V10.0376H11.9814Z" fill="#BCBECB"/>
<path d="M34.2926 16.7575H23.0331C23.5308 18.6291 24.9345 19.5649 27.2442 19.5649C28.7176 19.5649 29.8326 19.0671 30.5892 18.0716L33.6952 19.8636C32.2219 21.994 30.0516 23.0592 27.1844 23.0592C24.7155 23.0592 22.7344 22.3126 21.2411 20.8193C19.7478 19.326 19.0011 17.4444 19.0011 15.1746C19.0011 12.9446 19.7378 11.073 21.2112 9.55977C22.6647 8.04655 24.5562 7.28994 26.8858 7.28994C29.0959 7.28994 30.8978 8.04655 32.2915 9.55977C33.7251 11.073 34.4419 12.9446 34.4419 15.1746C34.4419 15.5927 34.3921 16.1204 34.2926 16.7575ZM22.9733 13.7709H30.5892C30.3702 12.7953 29.9222 12.0486 29.2452 11.5309C28.5881 11.0132 27.8017 10.7544 26.8858 10.7544C25.8504 10.7544 24.9943 11.0232 24.3173 11.5608C23.6403 12.0785 23.1923 12.8152 22.9733 13.7709Z" fill="#BCBECB"/>
<path d="M40.9842 22.6411H37.1315V0.838867H40.9842V22.6411Z" fill="#BCBECB"/>
<path d="M48.3632 22.6411H44.5105V0.838867H48.3632V22.6411Z" fill="#BCBECB"/>
<path d="M64.6125 20.7894C63.0993 22.3026 61.2277 23.0592 58.9977 23.0592C56.7677 23.0592 54.8961 22.3026 53.3828 20.7894C51.8696 19.2762 51.113 17.4046 51.113 15.1746C51.113 12.9645 51.8696 11.1028 53.3828 9.58963C54.916 8.05651 56.7876 7.28994 58.9977 7.28994C61.2078 7.28994 63.0794 8.05651 64.6125 9.58963C66.1456 11.1228 66.9122 12.9844 66.9122 15.1746C66.9122 17.3847 66.1456 19.2563 64.6125 20.7894ZM56.1007 18.1313C56.8772 18.9079 57.8428 19.2961 58.9977 19.2961C60.1525 19.2961 61.1182 18.9079 61.8947 18.1313C62.6712 17.3548 63.0595 16.3692 63.0595 15.1746C63.0595 13.9799 62.6712 12.9944 61.8947 12.2178C61.1182 11.4413 60.1525 11.0531 58.9977 11.0531C57.8428 11.0531 56.8772 11.4413 56.1007 12.2178C55.344 13.0143 54.9657 13.9999 54.9657 15.1746C54.9657 16.3493 55.344 17.3349 56.1007 18.1313Z" fill="#BCBECB"/>
<path d="M79.8367 11.4114H90.3197V13.0242C90.3197 16.0108 89.364 18.4299 87.4525 20.2816C85.5411 22.1333 83.0722 23.0592 80.0457 23.0592C76.8202 23.0592 74.1422 22.0139 72.0118 19.9232C69.9012 17.8127 68.8459 15.2442 68.8459 12.2178C68.8459 9.17143 69.8913 6.59299 71.9819 4.48246C74.0924 2.37192 76.7007 1.31665 79.8068 1.31665C81.7381 1.31665 83.5102 1.75469 85.123 2.63076C86.7357 3.50683 88.0001 4.69152 88.916 6.18483L85.3918 8.21572C84.894 7.35956 84.1374 6.66268 83.1219 6.12509C82.1065 5.5875 80.9915 5.31871 79.7769 5.31871C77.766 5.31871 76.1233 5.97576 74.849 7.28987C73.5747 8.56416 72.9376 10.2068 72.9376 12.2178C72.9376 14.1889 73.5847 15.8216 74.8789 17.1158C76.1731 18.3901 77.9053 19.0272 80.0756 19.0272C81.6485 19.0272 82.9627 18.6788 84.0179 17.9819C85.0732 17.2851 85.79 16.3094 86.1683 15.0551H79.8367V11.4114Z" fill="#CFD1DE"/>
<path d="M105.795 20.7893C104.282 22.3026 102.41 23.0592 100.18 23.0592C97.9501 23.0592 96.0785 22.3026 94.5653 20.7893C93.0521 19.2761 92.2955 17.4045 92.2955 15.1745C92.2955 12.9644 93.0521 11.1028 94.5653 9.58956C96.0984 8.05643 97.9701 7.28987 100.18 7.28987C102.39 7.28987 104.262 8.05643 105.795 9.58956C107.328 11.1227 108.095 12.9843 108.095 15.1745C108.095 17.3846 107.328 19.2562 105.795 20.7893ZM97.2831 18.1313C98.0597 18.9078 99.0253 19.296 100.18 19.296C101.335 19.296 102.301 18.9078 103.077 18.1313C103.854 17.3547 104.242 16.3692 104.242 15.1745C104.242 13.9799 103.854 12.9943 103.077 12.2178C102.301 11.4413 101.335 11.053 100.18 11.053C99.0253 11.053 98.0597 11.4413 97.2831 12.2178C96.5265 13.0142 96.1482 13.9998 96.1482 15.1745C96.1482 16.3493 96.5265 17.3348 97.2831 18.1313Z" fill="#CFD1DE"/>
</svg>
