<?xml version="1.0" encoding="utf-8"?>
<!-- Generator: Adobe Illustrator 25.1.0, SVG Export Plug-In . SVG Version: 6.00 Build 0)  -->
<svg version="1.1" id="Layer_1" xmlns="http://www.w3.org/2000/svg" xmlns:xlink="http://www.w3.org/1999/xlink" x="0px" y="0px"
	 viewBox="0 0 457 104.2" style="enable-background:new 0 0 457 104.2;" xml:space="preserve">
<style type="text/css">
	.st0{fill:#282D3C;}
</style>
<g>
	<path class="st0" d="M62,80.4H28.5c-0.4,0-0.7-0.1-1-0.4c-0.3-0.3-0.5-0.6-0.5-1V25c0-0.4,0.2-0.8,0.5-1s0.7-0.4,1-0.4h10.4
		c0.4,0,0.7,0.1,1,0.4c0.3,0.3,0.5,0.6,0.5,1v43.9H62c0.4,0,0.8,0.1,1.1,0.5c0.3,0.3,0.4,0.6,0.4,1V79c0,0.4-0.1,0.7-0.4,1
		C62.8,80.3,62.4,80.4,62,80.4z"/>
	<path class="st0" d="M137.7,63.7L129,79c-0.2,0.4-0.5,0.7-0.9,1c-0.4,0.3-0.8,0.4-1.1,0.4h-10c-0.4,0-0.7-0.1-1-0.4
		c-0.3-0.3-0.4-0.6-0.4-1l15.6-27l-15.6-27c0-0.4,0.1-0.8,0.4-1s0.6-0.4,1-0.4h10c0.3,0,0.7,0.1,1.1,0.4c0.4,0.3,0.7,0.6,0.9,1
		l8.7,15.3l8.6-15.3c0.2-0.4,0.5-0.7,0.9-1c0.4-0.3,0.8-0.4,1.1-0.4h10.1c0.4,0,0.7,0.1,1,0.4s0.4,0.6,0.4,1l-15.6,27l15.6,27
		c0,0.4-0.1,0.8-0.4,1s-0.6,0.4-1,0.4h-10.1c-0.3,0-0.7-0.1-1.1-0.4s-0.7-0.6-0.9-1L137.7,63.7z"/>
	<path class="st0" d="M177.8,23.7c2.4-0.7,5.1-1.1,8-1.1c2.9,0,5.6,0.3,8,1c2.4,0.7,4.3,1.6,5.8,2.6c1.5,1.1,2.8,2.3,3.8,3.6
		s1.9,2.6,2.4,4s0.9,2.5,1.2,3.6c0.3,1.1,0.5,2,0.5,2.6l0,1v21.9c0,0.3,0,0.6,0,1.1c0,0.5-0.2,1.3-0.5,2.6c-0.3,1.3-0.7,2.5-1.2,3.6
		s-1.3,2.5-2.4,3.9c-1.1,1.4-2.4,2.6-3.8,3.7c-1.5,1-3.4,1.9-5.8,2.6c-2.4,0.7-5.1,1-8,1c-2.3,0-4.5-0.2-6.5-0.6c-2-0.4-3.7-1-5-1.7
		c-1.4-0.7-2.6-1.5-3.8-2.5c-1.1-0.9-2-1.9-2.7-2.9c-0.7-1-1.3-2-1.8-3c-0.5-1-0.9-2-1.1-2.9c-0.2-0.9-0.4-1.8-0.6-2.5
		s-0.2-1.3-0.3-1.7v-0.6V41.2c0-0.3,0-0.6,0-1.1c0-0.4,0.2-1.3,0.5-2.6c0.3-1.3,0.7-2.5,1.2-3.7s1.3-2.5,2.4-3.9
		c1.1-1.4,2.4-2.6,3.9-3.7C173.5,25.3,175.4,24.4,177.8,23.7z M187.7,35.1c-0.6-0.1-1.2-0.1-1.9-0.1s-1.2,0-1.9,0.1
		c-0.6,0.1-1.3,0.3-2.2,0.6c-0.9,0.3-1.6,0.8-2.2,1.4c-0.6,0.6-1.1,1.4-1.6,2.5c-0.5,1.1-0.7,2.4-0.7,3.9v17.5
		c0,1.5,0.2,2.8,0.7,3.9s1,1.9,1.6,2.5s1.3,1,2.2,1.4c0.9,0.3,1.6,0.5,2.2,0.6c0.6,0.1,1.2,0.1,1.9,0.1s1.2,0,1.9-0.1
		c0.6-0.1,1.3-0.3,2.2-0.6c0.9-0.3,1.6-0.8,2.2-1.4c0.6-0.6,1.1-1.4,1.6-2.5s0.6-2.4,0.6-3.9V43.4c0-1.5-0.2-2.8-0.6-3.9
		c-0.4-1.1-1-1.9-1.6-2.5c-0.6-0.6-1.3-1-2.2-1.4C189,35.4,188.3,35.2,187.7,35.1z"/>
	<path class="st0" d="M241.1,46.6h14c0.4,0,0.8,0.1,1,0.5c0.3,0.3,0.4,0.6,0.4,1v28.8c0,0.4-0.3,0.8-0.8,1.2c-2.1,1-4.8,1.8-7.8,2.4
		s-6,0.9-8.7,0.9h-0.8c-2.7,0-5.3-0.3-7.5-0.8c-2.3-0.6-4.2-1.3-5.7-2.2s-2.9-2-4.1-3.2s-2.1-2.5-2.8-3.8s-1.2-2.6-1.6-4
		s-0.7-2.7-0.8-3.7c-0.1-1.1-0.2-2.1-0.2-3.2V43.7c0-1,0.1-2.1,0.2-3.2c0.1-1.1,0.4-2.3,0.8-3.7c0.4-1.4,1-2.8,1.6-4
		s1.6-2.5,2.8-3.8s2.6-2.3,4.1-3.2c1.5-0.9,3.4-1.6,5.7-2.2c2.3-0.6,4.8-0.8,7.5-0.8c5.8,0,10.9,0.8,15,2.5c0.6,0.3,0.9,0.7,0.9,1.1
		c0,0.7-0.5,3.7-1.5,9.1c-0.2,0.6-0.7,0.8-1.3,0.8l-2-0.6c-2.8-0.8-5.4-1.1-7.8-1.1c-1.4,0-2.8,0.2-4.2,0.5s-2.7,0.8-4.1,1.5
		c-1.3,0.7-2.4,1.7-3.2,3.1s-1.2,2.9-1.2,4.7V60c0,4.2,2,7.1,5.9,8.7c1.5,0.6,3,0.9,4.6,0.8c2.7,0,5.1-0.4,7.3-1V57.3h-5.7
		c-0.4,0-0.8-0.1-1-0.4c-0.3-0.3-0.4-0.6-0.4-1v-7.8c0-0.4,0.1-0.7,0.4-1C240.3,46.8,240.7,46.6,241.1,46.6z"/>
	<path class="st0" d="M294.8,79l-5.4-11.2c-1.5,0.1-2.6,0.2-3.3,0.2h-5.5v11c0,0.4-0.2,0.7-0.5,1c-0.3,0.3-0.6,0.4-1,0.4h-10.4
		c-0.4,0-0.7-0.1-1-0.4c-0.3-0.3-0.5-0.6-0.5-1V25c0-0.4,0.2-0.8,0.5-1c0.3-0.3,0.7-0.4,1-0.4H286c2.3,0,4.5,0.2,6.5,0.6
		s3.7,1,5.1,1.7c1.4,0.7,2.7,1.5,3.8,2.4c1.2,0.9,2.1,1.9,2.8,2.9c0.7,1,1.3,2,1.8,3.1c0.5,1,0.9,2,1.2,2.9c0.2,0.9,0.4,1.7,0.6,2.4
		c0.2,0.7,0.2,1.3,0.3,1.7v1.5v7c0,0.2,0,0.6,0,1c0,0.4-0.2,1.2-0.5,2.5c-0.3,1.2-0.7,2.4-1.2,3.5c-0.5,1.1-1.3,2.4-2.3,3.8
		c-1,1.4-2.3,2.6-3.7,3.5l7.5,14.9c0,0.4-0.2,0.7-0.5,1c-0.3,0.3-0.6,0.4-1,0.4h-9.8c-0.3,0-0.6-0.1-1-0.4
		C295.2,79.8,295,79.4,294.8,79z M286,35.1h-5.5v20.5h5.5c0.7,0,1.3,0,1.9-0.1c0.6-0.1,1.4-0.3,2.2-0.6c0.9-0.3,1.6-0.8,2.2-1.4
		s1.2-1.4,1.6-2.5s0.7-2.4,0.7-3.9v-3.5c0-1.5-0.2-2.8-0.7-3.9s-1-1.9-1.6-2.5c-0.6-0.6-1.4-1-2.2-1.4c-0.9-0.3-1.6-0.5-2.2-0.6
		C287.3,35.1,286.7,35.1,286,35.1z"/>
	<path class="st0" d="M315.2,79V25c0-0.4,0.2-0.8,0.5-1s0.7-0.4,1-0.4h10.4c0.4,0,0.7,0.1,1,0.4s0.5,0.6,0.5,1v54
		c0,0.4-0.2,0.8-0.5,1s-0.7,0.4-1,0.4h-10.4c-0.4,0-0.7-0.1-1-0.4C315.4,79.7,315.2,79.4,315.2,79z"/>
	<path class="st0" d="M383.7,25v54c0,0.4-0.2,0.8-0.5,1s-0.7,0.4-1,0.4h-10c-0.5,0-0.9-0.4-1.2-1.1l-18.4-31.2V79
		c0,0.4-0.2,0.8-0.5,1s-0.7,0.4-1,0.4h-10.4c-0.4,0-0.7-0.1-1-0.4s-0.5-0.6-0.5-1V25c0-0.4,0.2-0.8,0.5-1s0.7-0.4,1-0.4h10
		c0.5,0,0.9,0.4,1.2,1.1l18.5,31.3V25c0-0.4,0.2-0.8,0.5-1s0.6-0.4,1-0.4h10.4c0.4,0,0.7,0.1,1,0.4C383.6,24.2,383.7,24.6,383.7,25z
		"/>
	<path class="st0" d="M107.4,35.1c0.4,0,0.8-0.1,1.1-0.5c0.3-0.3,0.4-0.6,0.4-1v-8.7c0-0.4-0.1-0.7-0.4-1c-0.3-0.3-0.6-0.4-1.1-0.4
		H74.7c-0.3,0-0.7,0.1-1,0.4s-0.5,0.6-0.5,1v21.7h12.5v11.6H73.3V79c0,0.4,0.1,0.8,0.5,1c0.3,0.3,0.6,0.4,1,0.4h32.7
		c0.4,0,0.8-0.1,1.1-0.4c0.3-0.3,0.4-0.6,0.4-1v-8.7c0-0.4-0.1-0.7-0.4-1c-0.3-0.3-0.6-0.5-1.1-0.5H85.7V58.2h17.2
		c0.4,0,0.8-0.1,1-0.5c0.3-0.3,0.4-0.6,0.4-1v-8.7c0-0.4-0.1-0.7-0.4-1s-0.6-0.4-1-0.4H85.7V35.1L107.4,35.1L107.4,35.1z"/>
	<path class="st0" d="M428.6,68.9h-20.8v11.6h20.8c0.4,0,0.8-0.1,1-0.4c0.3-0.3,0.4-0.6,0.4-1v-8.7c0-0.4-0.1-0.7-0.4-1
		S429,68.9,428.6,68.9z"/>
	<path class="st0" d="M429.6,23.9c-0.3-0.3-0.6-0.4-1.1-0.4h-20.8v11.6h-13.3v33.8h13.3l-0.9-10.7h18c0.4,0,0.8-0.1,1.1-0.5
		c0.3-0.3,0.4-0.6,0.4-1v-8.7c0-0.4-0.2-0.7-0.4-1s-0.7-0.4-1.1-0.4h-18V35.1h21.7c0.4,0,0.8-0.1,1.1-0.5c0.3-0.3,0.4-0.6,0.4-1
		v-8.7C430,24.6,429.9,24.2,429.6,23.9z"/>
</g>
</svg>
