<?xml version="1.0" encoding="utf-8"?>
<!-- Generator: Adobe Illustrator 25.1.0, SVG Export Plug-In . SVG Version: 6.00 Build 0)  -->
<svg version="1.1" id="Warstwa_1" xmlns="http://www.w3.org/2000/svg" xmlns:xlink="http://www.w3.org/1999/xlink" x="0px" y="0px"
	 viewBox="0 0 50 69" style="enable-background:new 0 0 50 69;" xml:space="preserve">
<style type="text/css">
	.st0{fill:#333333;}
</style>
<g>
	<g>
		<g>
			<rect x="7.8" y="18" class="st0" width="12.5" height="11.5"/>
			<path class="st0" d="M38.5,40.6c0.3-0.3,0.4-0.6,0.4-1V31c0-0.4-0.1-0.7-0.4-1c-0.3-0.3-0.6-0.4-1-0.4H20.2v11.6h17.2
				C37.8,41.1,38.2,40.9,38.5,40.6z"/>
			<path class="st0" d="M41.9,51.8H20.2V41.1H7.8v20.8c0,0.4,0.1,0.8,0.4,1c0.3,0.3,0.6,0.4,1,0.4h32.7c0.4,0,0.8-0.1,1.1-0.4
				c0.3-0.3,0.4-0.6,0.4-1v-8.7c0-0.3-0.1-0.7-0.4-1C42.6,51.9,42.3,51.8,41.9,51.8z"/>
		</g>
		<circle class="st0" cx="9.3" cy="7.4" r="1.4"/>
		<circle class="st0" cx="9.3" cy="11.5" r="1.4"/>
		<circle class="st0" cx="9.3" cy="15.7" r="1.4"/>
		<circle class="st0" cx="13.4" cy="7.4" r="1.4"/>
		<circle class="st0" cx="13.4" cy="11.5" r="1.4"/>
		<circle class="st0" cx="13.4" cy="15.7" r="1.4"/>
		<circle class="st0" cx="17.5" cy="7.4" r="1.4"/>
		<circle class="st0" cx="17.5" cy="11.5" r="1.4"/>
		<circle class="st0" cx="17.5" cy="15.7" r="1.4"/>
		<circle class="st0" cx="21.6" cy="7.4" r="1.4"/>
		<circle class="st0" cx="21.6" cy="11.5" r="1.4"/>
		<circle class="st0" cx="21.6" cy="15.7" r="1.4"/>
		<circle class="st0" cx="25.7" cy="7.4" r="1.4"/>
		<circle class="st0" cx="25.7" cy="11.5" r="1.4"/>
		<circle class="st0" cx="25.7" cy="15.7" r="1.4"/>
		<circle class="st0" cx="29.8" cy="7.4" r="1.4"/>
		<circle class="st0" cx="29.8" cy="11.5" r="1.4"/>
		<circle class="st0" cx="29.8" cy="15.7" r="1.4"/>
		<circle class="st0" cx="33.9" cy="7.4" r="1.4"/>
		<circle class="st0" cx="33.9" cy="11.5" r="1.4"/>
		<circle class="st0" cx="33.9" cy="15.7" r="1.4"/>
		<circle class="st0" cx="38" cy="7.4" r="1.4"/>
		<circle class="st0" cx="38" cy="11.5" r="1.4"/>
		<circle class="st0" cx="38" cy="15.7" r="1.4"/>
		<circle class="st0" cx="42.1" cy="7.4" r="1.4"/>
		<circle class="st0" cx="42.1" cy="11.5" r="1.4"/>
		<circle class="st0" cx="42.1" cy="15.7" r="1.4"/>
	</g>
</g>
</svg>
