<svg width="156" height="23" viewBox="0 0 156 23" fill="none" xmlns="http://www.w3.org/2000/svg">
<path d="M13.4645 22.2357H0.57705C0.42317 22.2357 0.30776 22.1973 0.19235 22.0818C0.07694 21.9664 0 21.851 0 21.6971V0.923346C0 0.769466 0.07694 0.615586 0.19235 0.538646C0.30776 0.461706 0.46164 0.384766 0.57705 0.384766H4.57793C4.73181 0.384766 4.84722 0.423236 4.96263 0.538646C5.07804 0.654056 5.15498 0.769466 5.15498 0.923346V17.8117H13.4645C13.6184 17.8117 13.7723 17.8501 13.8877 18.004C14.0031 18.1194 14.0415 18.2348 14.0415 18.3887V21.6971C14.0415 21.851 14.0031 21.9664 13.8877 22.0818C13.7723 22.1973 13.6184 22.2357 13.4645 22.2357Z" fill="#282D3C"/>
<path d="M42.5863 15.8112L39.2395 21.6971C39.1625 21.851 39.0471 21.9664 38.8932 22.0818C38.7393 22.1973 38.5855 22.2357 38.4701 22.2357H34.6231C34.4692 22.2357 34.3538 22.1973 34.2384 22.0818C34.1229 21.9664 34.0845 21.851 34.0845 21.6971L40.0858 11.3102L34.0845 0.923346C34.0845 0.769466 34.1229 0.615586 34.2384 0.538646C34.3538 0.461706 34.4692 0.384766 34.6231 0.384766H38.4701C38.5855 0.384766 38.7393 0.423236 38.8932 0.538646C39.0471 0.654056 39.1625 0.769466 39.2395 0.923346L42.5863 6.80926L45.8948 0.923346C45.9717 0.769466 46.0871 0.654056 46.241 0.538646C46.3949 0.423236 46.5488 0.384766 46.6642 0.384766H50.5496C50.7035 0.384766 50.8189 0.423236 50.9343 0.538646C51.0497 0.654056 51.0882 0.769466 51.0882 0.923346L45.0869 11.3102L51.0882 21.6971C51.0882 21.851 51.0497 22.0049 50.9343 22.0818C50.8189 22.1588 50.7035 22.2357 50.5496 22.2357H46.6642C46.5488 22.2357 46.3949 22.1973 46.241 22.0818C46.0871 21.9664 45.9717 21.851 45.8948 21.6971L42.5863 15.8112Z" fill="#282D3C"/>
<path d="M58.0127 0.42317C58.936 0.15388 59.9747 0 61.0903 0C62.2059 0 63.2446 0.11541 64.1679 0.3847C65.0912 0.65399 65.8221 1.00022 66.3992 1.38492C66.9762 1.80809 67.4763 2.26973 67.861 2.76984C68.2457 3.26995 68.592 3.77006 68.7843 4.30864C68.9767 4.84722 69.1305 5.27039 69.246 5.69356C69.3614 6.11673 69.4383 6.46296 69.4383 6.69378V7.07848V15.5034C69.4383 15.6188 69.4383 15.7342 69.4383 15.9266C69.4383 16.1189 69.3614 16.4267 69.246 16.9268C69.1305 17.4269 68.9767 17.8885 68.7843 18.3117C68.592 18.7349 68.2842 19.2735 67.861 19.812C67.4379 20.3506 66.9378 20.8123 66.3992 21.2354C65.8221 21.6201 65.0912 21.9664 64.1679 22.2357C63.2446 22.5049 62.2059 22.6204 61.0903 22.6204C60.2055 22.6204 59.3592 22.5434 58.5898 22.3895C57.8204 22.2357 57.1664 22.0048 56.6663 21.7355C56.1277 21.4663 55.666 21.1585 55.2044 20.7738C54.7812 20.4276 54.435 20.0429 54.1657 19.6582C53.8964 19.2735 53.6656 18.8888 53.4733 18.5041C53.2809 18.1194 53.127 17.7347 53.0501 17.3884C52.9731 17.0422 52.8962 16.696 52.8193 16.4267C52.7423 16.1574 52.7423 15.9266 52.7039 15.7727V15.5419V7.15542C52.7039 7.04001 52.7039 6.9246 52.7039 6.73225C52.7039 6.57837 52.7808 6.23214 52.8962 5.73203C53.0116 5.23192 53.1655 4.77028 53.3578 4.30864C53.5502 3.847 53.858 3.34689 54.2811 2.80831C54.7043 2.26973 55.2044 1.80809 55.7815 1.38492C56.3585 1.03869 57.0894 0.69246 58.0127 0.42317ZM61.8212 4.80875C61.5904 4.77028 61.3596 4.77028 61.0903 4.77028C60.821 4.77028 60.6287 4.77028 60.3594 4.80875C60.1286 4.84722 59.8593 4.92416 59.513 5.03957C59.1668 5.15498 58.8975 5.34733 58.6667 5.57815C58.4359 5.80897 58.2435 6.11673 58.0512 6.5399C57.8588 6.96307 57.7819 7.46318 57.7819 8.04023V14.7725C57.7819 15.3495 57.8588 15.8496 58.0512 16.2728C58.2435 16.696 58.4359 17.0037 58.6667 17.2346C58.8975 17.4654 59.1668 17.6193 59.513 17.7731C59.8593 17.8885 60.1286 17.9655 60.3594 18.004C60.5902 18.0424 60.821 18.0424 61.0903 18.0424C61.3596 18.0424 61.552 18.0424 61.8212 18.004C62.0521 17.9655 62.3214 17.8885 62.6676 17.7731C63.0138 17.6577 63.2831 17.4654 63.5139 17.2346C63.7447 17.0037 63.9371 16.696 64.1294 16.2728C64.3218 15.8496 64.3603 15.3495 64.3603 14.7725V8.00176C64.3603 7.42471 64.2833 6.9246 64.1294 6.50143C63.9756 6.07826 63.7447 5.7705 63.5139 5.53968C63.2831 5.30886 63.0138 5.15498 62.6676 5.0011C62.3214 4.92416 62.0521 4.84722 61.8212 4.80875Z" fill="#282D3C"/>
<path d="M82.3642 9.23203H87.75C87.9038 9.23203 88.0577 9.2705 88.1347 9.42438C88.2501 9.53979 88.2885 9.6552 88.2885 9.80908V20.8884C88.2885 21.0423 88.1731 21.1962 87.9808 21.3501C87.1729 21.7348 86.1342 22.0425 84.9801 22.2734C83.826 22.5042 82.6719 22.6196 81.6332 22.6196H81.3255C80.2868 22.6196 79.2866 22.5042 78.4402 22.3118C77.5554 22.081 76.8245 21.8117 76.2474 21.4655C75.6704 21.1193 75.1318 20.6961 74.6702 20.2344C74.2085 19.7728 73.8623 19.2727 73.593 18.7726C73.3237 18.2725 73.1314 17.7724 72.9775 17.2338C72.8236 16.6952 72.7082 16.1951 72.6697 15.8104C72.6312 15.3872 72.5928 15.0025 72.5928 14.5794V8.1164C72.5928 7.7317 72.6312 7.30853 72.6697 6.88536C72.7082 6.46219 72.8236 6.00055 72.9775 5.46197C73.1314 4.92339 73.3622 4.38481 73.593 3.92317C73.8238 3.46153 74.2085 2.96142 74.6702 2.46131C75.1318 1.9612 75.6704 1.5765 76.2474 1.23027C76.8245 0.884042 77.5554 0.614752 78.4402 0.383932C79.325 0.153112 80.2868 0.0761719 81.3255 0.0761719C83.5567 0.0761719 85.5187 0.383932 87.096 1.03792C87.3268 1.15333 87.4422 1.30721 87.4422 1.46109C87.4422 1.73038 87.2498 2.88448 86.8651 4.96186C86.7882 5.19268 86.5959 5.26962 86.365 5.26962L85.5956 5.0388C84.5185 4.73104 83.5183 4.61563 82.595 4.61563C82.0564 4.61563 81.5178 4.69257 80.9792 4.80798C80.4407 4.92339 79.9405 5.11574 79.402 5.38503C78.9019 5.65432 78.4787 6.03902 78.1709 6.5776C77.8632 7.11618 77.7093 7.69323 77.7093 8.38569V14.387C77.7093 16.0028 78.4787 17.1184 79.979 17.7339C80.5561 17.9647 81.1331 18.0801 81.7486 18.0417C82.7873 18.0417 83.7106 17.8878 84.5569 17.657V13.3483H82.3642C82.2103 13.3483 82.0564 13.3099 81.9795 13.1944C81.864 13.079 81.8256 12.9636 81.8256 12.8097V9.80908C81.8256 9.6552 81.864 9.53979 81.9795 9.42438C82.0564 9.30897 82.2103 9.23203 82.3642 9.23203Z" fill="#282D3C"/>
<path d="M103.023 21.6971L100.945 17.3885C100.368 17.427 99.9452 17.4654 99.6759 17.4654H97.56V21.6971C97.56 21.851 97.4831 21.9664 97.3677 22.0818C97.2523 22.1973 97.1368 22.2357 96.983 22.2357H92.9821C92.8282 22.2357 92.7128 22.1973 92.5974 22.0818C92.482 21.9664 92.405 21.851 92.405 21.6971V0.923346C92.405 0.769466 92.482 0.615586 92.5974 0.538646C92.7128 0.423236 92.8667 0.384766 92.9821 0.384766H99.6374C100.522 0.384766 101.369 0.461706 102.138 0.615586C102.907 0.769466 103.561 1.00029 104.1 1.26958C104.638 1.53887 105.139 1.84663 105.562 2.19286C106.023 2.53909 106.37 2.92379 106.639 3.30849C106.908 3.69319 107.139 4.07789 107.331 4.50106C107.524 4.88576 107.678 5.27046 107.793 5.61669C107.87 5.96292 107.947 6.27068 108.024 6.53997C108.101 6.80926 108.101 7.04008 108.139 7.19396V7.77101V10.4639C108.139 10.5408 108.139 10.6947 108.139 10.8486C108.139 11.0025 108.062 11.3102 107.947 11.8104C107.832 12.272 107.678 12.7336 107.485 13.1568C107.293 13.58 106.985 14.0801 106.6 14.6187C106.216 15.1572 105.716 15.6189 105.177 15.9651L108.062 21.6971C108.062 21.851 107.985 21.9664 107.87 22.0818C107.755 22.1973 107.639 22.2357 107.485 22.2357H103.715C103.6 22.2357 103.484 22.1973 103.331 22.0818C103.177 22.0049 103.1 21.851 103.023 21.6971ZM99.6374 4.80882H97.5215V12.6952H99.6374C99.9067 12.6952 100.137 12.6952 100.368 12.6567C100.599 12.6182 100.907 12.5413 101.215 12.4259C101.561 12.3105 101.83 12.1181 102.061 11.8873C102.292 11.6565 102.523 11.3487 102.677 10.9255C102.83 10.5024 102.946 10.0023 102.946 9.42521V8.07877C102.946 7.50172 102.869 7.00161 102.677 6.57844C102.484 6.15527 102.292 5.84751 102.061 5.61669C101.83 5.38587 101.522 5.23199 101.215 5.07811C100.868 4.9627 100.599 4.88576 100.368 4.84729C100.137 4.80882 99.9067 4.80882 99.6374 4.80882Z" fill="#282D3C"/>
<path d="M110.871 21.6971V0.923346C110.871 0.769466 110.948 0.615586 111.063 0.538646C111.178 0.461706 111.332 0.384766 111.448 0.384766H115.449C115.602 0.384766 115.718 0.423236 115.833 0.538646C115.949 0.654056 116.026 0.769466 116.026 0.923346V21.6971C116.026 21.851 115.949 22.0049 115.833 22.0818C115.718 22.1588 115.564 22.2357 115.449 22.2357H111.448C111.294 22.2357 111.178 22.1973 111.063 22.0818C110.948 21.9664 110.871 21.851 110.871 21.6971Z" fill="#282D3C"/>
<path d="M137.222 0.923346V21.6971C137.222 21.851 137.145 22.0049 137.03 22.0818C136.915 22.1588 136.761 22.2357 136.645 22.2357H132.798C132.606 22.2357 132.452 22.0818 132.337 21.8126L125.258 9.80991V21.6971C125.258 21.851 125.181 22.0049 125.066 22.0818C124.95 22.1588 124.797 22.2357 124.681 22.2357H120.68C120.526 22.2357 120.411 22.1973 120.296 22.0818C120.18 21.9664 120.103 21.851 120.103 21.6971V0.923346C120.103 0.769466 120.18 0.615586 120.296 0.538646C120.411 0.461706 120.565 0.384766 120.68 0.384766H124.527C124.72 0.384766 124.874 0.538646 124.989 0.807936L132.106 12.849V0.923346C132.106 0.769466 132.183 0.615586 132.298 0.538646C132.414 0.461706 132.529 0.384766 132.683 0.384766H136.684C136.838 0.384766 136.953 0.423236 137.069 0.538646C137.184 0.615586 137.222 0.769466 137.222 0.923346Z" fill="#282D3C"/>
<path d="M30.9299 4.80822C31.0838 4.80822 31.2377 4.76975 31.3531 4.61587C31.4685 4.50046 31.507 4.38505 31.507 4.23117V0.884283C31.507 0.730403 31.4685 0.614993 31.3531 0.499583C31.2377 0.384173 31.1223 0.345703 30.9299 0.345703H18.3502C18.2348 0.345703 18.081 0.384173 17.9655 0.499583C17.8501 0.614993 17.7732 0.730403 17.7732 0.884283V9.23227H22.5819V13.6948H17.8117V21.6966C17.8117 21.8504 17.8501 22.0043 18.004 22.0813C18.1194 22.1967 18.2348 22.2351 18.3887 22.2351H30.9684C31.1223 22.2351 31.2762 22.1967 31.3916 22.0813C31.507 21.9658 31.5455 21.8504 31.5455 21.6966V18.3497C31.5455 18.1958 31.507 18.0804 31.3916 17.965C31.2762 17.8496 31.1608 17.7726 30.9684 17.7726H22.5819V13.6948H29.1988C29.3527 13.6948 29.5065 13.6563 29.5835 13.5024C29.6989 13.387 29.7374 13.2716 29.7374 13.1177V9.77085C29.7374 9.61697 29.6989 9.50156 29.5835 9.38615C29.4681 9.27074 29.3527 9.23227 29.1988 9.23227H22.5819V4.80822H30.9299Z" fill="#282D3C"/>
<path d="M154.496 17.8111H146.494V22.2736H154.496C154.649 22.2736 154.803 22.2351 154.88 22.1197C154.996 22.0043 155.034 21.8889 155.034 21.735V18.3881C155.034 18.2342 154.996 18.1188 154.88 18.0034C154.765 17.888 154.649 17.8111 154.496 17.8111Z" fill="#282D3C"/>
<path d="M154.88 0.499583C154.765 0.384173 154.649 0.345703 154.457 0.345703H146.455V4.80822H141.339V17.8111H146.455L146.109 13.6948H153.034C153.188 13.6948 153.342 13.6563 153.457 13.5024C153.572 13.387 153.611 13.2716 153.611 13.1177V9.77085C153.611 9.61697 153.534 9.50156 153.457 9.38615C153.38 9.27074 153.188 9.23227 153.034 9.23227H146.109V4.80822H154.457C154.611 4.80822 154.765 4.76975 154.88 4.61587C154.996 4.50046 155.034 4.38505 155.034 4.23117V0.884283C155.034 0.768873 154.996 0.614993 154.88 0.499583Z" fill="#282D3C"/>
</svg>
