<svg width="74" height="77" viewBox="0 0 74 77" fill="none" xmlns="http://www.w3.org/2000/svg">
<g clip-path="url(#clip0_12_1979)">
<path d="M73.6215 26.5955L69.6868 24.1796C69.4337 24.0242 69.1145 24.0191 68.8563 24.1669L53.0385 33.2193L50.0004 31.4806V28.3841L66.212 19.1028C66.4496 18.9668 66.5998 18.7211 66.6109 18.4517L66.8023 13.8816C66.8143 13.5886 66.6607 13.3124 66.4033 13.1646L45.273 1.07219C45.0147 0.924417 44.6938 0.929484 44.4407 1.08571L40.5069 3.51433C40.2726 3.65873 40.1302 3.91206 40.1302 4.18482V21.6547C38.0616 22.0355 35.939 22.0355 33.8695 21.6547V4.18482C33.8695 3.91206 33.7271 3.65873 33.4929 3.51433L29.559 1.08655C29.3059 0.929484 28.985 0.924417 28.7268 1.07304L7.5973 13.1646C7.3399 13.3124 7.18546 13.5885 7.19833 13.8807L7.38966 18.4509C7.40082 18.7211 7.55096 18.9668 7.78862 19.1028L24.0002 28.3841V31.4806L20.9621 33.2193L5.14433 24.1669C4.88693 24.0191 4.56691 24.0233 4.3138 24.1787L0.379102 26.5947C0.143157 26.7391 0.000732422 26.9933 0.000732422 27.2669V50.6774C0.000732422 50.9535 0.146589 51.2094 0.385108 51.353L4.31981 53.7191C4.57205 53.8702 4.88865 53.8736 5.14433 53.7275L20.4421 44.9723C21.8501 46.5261 22.9208 48.3467 23.5892 50.3227L8.1833 59.1396C7.93534 59.2814 7.78348 59.5424 7.78348 59.8236V64.4241C7.78348 64.7061 7.9362 64.9671 8.18415 65.1081L28.7294 76.8569C28.9456 76.9801 29.2073 76.9987 29.4381 76.905L34.1587 75.005C34.4607 74.8834 34.658 74.5937 34.658 74.272V55.3708L37.0012 54.0298L39.3443 55.3708V74.272C39.3443 74.5929 39.5416 74.8825 39.8437 75.005L44.5643 76.905C44.7951 76.9979 45.0567 76.9801 45.273 76.8569L65.8182 65.1081C66.0661 64.9662 66.2188 64.7061 66.2188 64.4241V59.8236C66.2188 59.5415 66.067 59.2806 65.819 59.1396L50.4131 50.3227C51.0806 48.3467 52.1522 46.5261 53.5602 44.9723L68.858 53.7275C69.1137 53.8736 69.4294 53.8702 69.6825 53.7191L73.6172 51.353C73.8566 51.2094 74.0016 50.9535 74.0016 50.6774V27.2669C74.0016 26.9933 73.8583 26.7391 73.6232 26.5947L73.6215 26.5955ZM51.4384 34.1347L50.3239 34.7723C49.8614 35.0366 49.375 35.3533 48.867 35.7029L46.4887 34.3425L49.1896 32.8478L51.4384 34.1347ZM29.5359 35.0155C29.783 34.8736 29.9357 34.6127 29.9357 34.3306V31.1268C30.7001 31.3649 31.4758 31.5634 32.2608 31.7221V36.375L28.4969 38.5292C27.8791 37.8925 27.2219 37.2929 26.5295 36.7348L29.5359 35.0155ZM28.327 32.9778L25.6072 31.473V29.2868C26.4557 29.7546 27.3326 30.1701 28.2335 30.5315C28.2643 30.5441 28.2961 30.5543 28.327 30.5661V32.977V32.9778ZM33.4697 37.5159C33.7177 37.374 33.8695 37.1131 33.8695 36.831V31.989C34.0394 32.0118 34.2093 32.043 34.38 32.0616C36.12 32.2668 37.878 32.2668 39.618 32.0616C39.7887 32.0422 39.9586 32.0118 40.1294 31.989V36.831C40.1294 37.1131 40.2812 37.3732 40.5292 37.515L44.427 39.7452C43.0885 41.3446 41.9895 43.1238 41.1641 45.0298L37.4036 42.8781C37.1539 42.7345 36.8441 42.7345 36.5945 42.8781L32.8339 45.0298C32.0086 43.1238 30.9095 41.3437 29.571 39.7452L33.4689 37.515L33.4697 37.5159ZM41.7389 36.3759V31.723C42.524 31.5642 43.2996 31.3649 44.0641 31.1277V34.3315C44.0641 34.6135 44.2168 34.8745 44.4639 35.0163L47.4702 36.7356C46.7779 37.2938 46.1206 37.8933 45.5029 38.5301L41.7389 36.3767V36.3759ZM45.6728 32.977V30.5661C45.7028 30.5543 45.7337 30.5441 45.7637 30.5323C46.6646 30.1701 47.5423 29.7546 48.3917 29.2868V31.4722L45.6728 32.977ZM41.7389 5.55957L56.032 13.7389L53.1741 15.3754L45.273 10.85C45.0241 10.7073 44.717 10.7065 44.4673 10.8483C44.2176 10.9893 44.0641 11.2511 44.0641 11.5349V20.4581C43.3099 20.79 42.5334 21.0686 41.7389 21.2907V5.56042V5.55957ZM51.5748 16.2908L50.0013 17.1918V15.3898L51.5748 16.2908ZM48.3926 14.4685V18.1131L45.762 19.6196C45.7345 19.6348 45.7019 19.6517 45.6728 19.6677V12.9121L48.3926 14.4693V14.4685ZM29.5324 10.8475C29.2828 10.7056 28.9756 10.7073 28.7276 10.85L20.8265 15.3754L17.9686 13.7389L32.2617 5.55957V21.2907C31.468 21.0678 30.6907 20.79 29.9365 20.4581V11.5349C29.9365 11.2511 29.7821 10.9893 29.5324 10.8483V10.8475ZM28.3278 12.9105V19.666C28.2995 19.65 25.608 18.1122 25.608 18.1122V14.4685L28.3278 12.9105ZM23.9993 15.3898V17.1918L22.4258 16.2908L23.9993 15.3898ZM29.1163 2.68002L31.5109 4.15779L15.9643 13.0549C15.7164 13.1967 15.5645 13.4568 15.5645 13.7389C15.5645 14.0209 15.7164 14.281 15.9643 14.4229C15.9643 14.4229 28.2772 21.4461 28.7851 21.6851C31.3505 22.8935 34.157 23.5201 37.0003 23.5201C39.8436 23.5201 42.651 22.8926 45.2155 21.6851C45.7234 21.4453 58.0363 14.4229 58.0363 14.4229C58.2842 14.281 58.4361 14.0201 58.4361 13.7389C58.4361 13.4577 58.2842 13.1959 58.0363 13.0549L42.4897 4.15779L44.8843 2.68002L64.3991 13.8478L47.9576 23.26C46.8817 23.8705 45.7543 24.3907 44.5883 24.8137C43.3571 25.2655 42.0873 25.6067 40.7943 25.8321C40.5343 25.8777 40.2744 25.9233 40.0144 25.9588C38.0153 26.2392 35.9862 26.2392 33.9871 25.9588C33.7262 25.9233 33.4663 25.8777 33.2055 25.8321C31.9125 25.6058 30.6427 25.2655 29.4123 24.8137C28.2463 24.3907 27.1198 23.8705 26.043 23.26L9.60154 13.8478L29.1163 2.68086V2.68002ZM8.97864 17.9526L8.86625 15.258L25.2348 24.6288C26.3905 25.2849 27.6003 25.844 28.8521 26.2991C30.1733 26.7838 31.5367 27.1495 32.9258 27.3918C33.2046 27.4408 33.4852 27.4889 33.7657 27.5278C35.9124 27.8293 38.0908 27.8293 40.2375 27.5278C40.5172 27.4889 40.7977 27.44 41.0757 27.3918C42.4648 27.1495 43.8281 26.7838 45.1503 26.2991C46.4021 25.844 47.6118 25.2858 48.7675 24.6297L65.1361 15.2589L65.0237 17.9535L48.7932 27.2457L47.9593 27.7237C47.0601 28.2363 46.1241 28.6847 45.1597 29.0664C45.0241 29.1204 44.886 29.1702 44.7487 29.2192L44.5891 29.2775C43.3579 29.7293 42.0881 30.0704 40.7952 30.2967C40.3447 30.3753 39.8943 30.4394 39.4404 30.4893C37.8205 30.6843 36.1818 30.6843 34.5619 30.4893C34.108 30.4394 33.6585 30.3744 33.208 30.2967C31.915 30.0704 30.6444 29.7293 29.414 29.2775L29.2544 29.2192C29.1172 29.1694 28.9799 29.1204 28.8409 29.0655C27.8774 28.6838 26.943 28.2354 26.0447 27.7237L25.2099 27.2457L8.98036 17.9535L8.97864 17.9526ZM24.8101 32.8478L27.511 34.3425L25.1327 35.7029C24.6248 35.3533 24.1383 35.0366 23.6759 34.7723L22.5613 34.1347L24.8101 32.8478ZM5.54329 51.6671V35.5745L7.86928 36.9062V46.038C7.86928 46.3218 8.02285 46.5835 8.27253 46.7246C8.5222 46.8656 8.82936 46.8647 9.07817 46.722L17.0334 42.1688C17.8287 42.6467 18.5786 43.1956 19.2718 43.8087L5.54243 51.6671H5.54329ZM12.7907 39.7258L15.4461 41.2466L9.47713 44.6624V41.6216L12.7898 39.7258H12.7907ZM9.47799 39.7908V37.8283L11.1914 38.8096L9.47799 39.79V39.7908ZM24.0328 51.8993C24.2387 52.8341 24.3545 53.7858 24.3785 54.7417L16.5383 59.2282C16.2912 59.3701 16.1385 59.631 16.1385 59.9122C16.1385 60.1934 16.2912 60.4552 16.5383 60.5962L24.3931 65.0921V67.9463L10.1867 59.8227L24.0328 51.8985V51.8993ZM21.0316 61.3377L18.5426 59.9131L24.3931 56.5649V59.4132L21.0316 61.3368V61.3377ZM24.3931 61.2456V63.2621L22.6308 62.2539L24.3931 61.2456ZM28.3278 74.7973L9.39133 63.9689V61.1992L24.7947 70.0076C25.0435 70.1503 25.3506 70.1511 25.6003 70.0101C25.8491 69.8682 26.0027 69.6065 26.0036 69.3236V55.142C25.9967 50.7661 24.2661 46.5633 21.1766 43.416C20.1024 42.3241 18.8806 41.3826 17.5473 40.6167L5.14604 33.5132C4.89723 33.3705 4.59007 33.3697 4.3404 33.5115C4.09073 33.6525 3.93715 33.9143 3.93715 34.1972V51.6316L1.61116 50.2332V28.6433L19.6485 38.9742C19.9874 39.1685 20.3186 39.3728 20.6412 39.5881C21.8072 40.3676 22.8719 41.2829 23.814 42.3149C26.5089 45.2645 28.0919 49.0358 28.2995 52.9971C28.315 53.2935 28.3304 53.589 28.3304 53.8871V74.7964L28.3278 74.7973ZM33.0484 73.7409L29.9365 74.994V53.888C29.9365 53.562 29.9211 53.2386 29.9039 52.9152C29.6757 48.5916 27.9469 44.4766 25.0074 41.2568C23.9787 40.1294 22.8144 39.1288 21.5412 38.2784C21.1886 38.0437 20.8265 37.8182 20.455 37.6062L2.36275 27.2441L4.7548 25.7756L22.8676 36.1411C23.4717 36.4907 24.0568 36.8716 24.6205 37.2811C27.8396 39.5898 30.3012 42.7742 31.7048 46.4433C32.5834 48.7394 33.039 51.1714 33.0493 53.6245V73.74L33.0484 73.7409ZM36.1955 52.6601L34.6537 53.5426C34.6434 52.6289 34.5756 51.7169 34.4495 50.8108L36.1955 49.8118V52.6601ZM39.346 53.5426L37.8042 52.6601V49.8118L39.5502 50.8108C39.4241 51.7161 39.3563 52.6281 39.346 53.5417V53.5426ZM39.8256 49.1371L37.4044 47.7514C37.1547 47.607 36.845 47.607 36.5953 47.7514L34.1741 49.1371C33.9828 48.2505 33.7357 47.3765 33.4345 46.5194L36.9994 44.4792L40.5644 46.5194C40.2632 47.3765 40.0161 48.2505 39.8248 49.1371H39.8256ZM44.9289 48.307C44.4587 49.8026 44.179 51.3504 44.0958 52.9143C44.0786 53.2386 44.0632 53.562 44.0632 53.888V74.994L40.9513 73.7409V53.6245C40.9616 51.1714 41.4172 48.7394 42.2958 46.4433C43.6986 42.7742 46.161 39.5898 49.3801 37.2811C49.9438 36.8716 50.5298 36.4907 51.133 36.1411L69.2458 25.7756L71.6379 27.2441L53.5465 37.6054C53.1741 37.8182 52.812 38.042 52.4594 38.2776C51.1862 39.1288 50.0219 40.1294 48.9932 41.2559C47.1382 43.2902 45.7517 45.696 44.9289 48.307ZM63.8139 59.8236L49.6075 67.9471V65.0929L57.4623 60.5971C57.7094 60.4552 57.8621 60.1951 57.8621 59.9131C57.8621 59.631 57.7094 59.3709 57.4623 59.2291L49.6221 54.7426C49.6461 53.7866 49.7619 52.8349 49.9678 51.9001L63.8139 59.8244V59.8236ZM51.3689 62.253L49.6075 63.2613V61.2448L51.3689 62.253ZM49.6075 59.414V56.5657L55.4572 59.9139L52.9682 61.3385L49.6066 59.4149L49.6075 59.414ZM68.4573 51.6679L54.7279 43.8104C55.422 43.1973 56.171 42.6493 56.9672 42.1705L64.9233 46.7237C65.1721 46.8664 65.4793 46.8673 65.7289 46.7262C65.9786 46.5844 66.1322 46.3226 66.1322 46.0397V36.9079L68.4582 35.5762V51.6688L68.4573 51.6679ZM64.5226 41.6224V44.6633L58.5536 41.2475L61.2091 39.7266L64.5218 41.6224H64.5226ZM62.8092 38.8104L64.5226 37.8292V39.7917L62.8092 38.8113V38.8104ZM72.392 50.2341L70.066 51.6325V34.1981C70.066 33.9143 69.9124 33.6534 69.6628 33.5124C69.4131 33.3713 69.1059 33.3722 68.8571 33.5141L56.5494 40.5635H56.5477L56.4567 40.6167C55.1226 41.3826 53.9 42.325 52.8258 43.4169C49.7242 46.5751 47.9928 50.7982 47.9988 55.191V69.3244C47.9988 69.5347 48.0828 69.7365 48.2338 69.8843C48.3848 70.0321 48.589 70.1165 48.8027 70.1157C48.9451 70.1157 49.0841 70.0785 49.2068 70.0084L64.6093 61.2V63.9698L45.6728 74.7981V53.8888C45.6728 53.5916 45.6882 53.2952 45.7037 52.9979C45.8418 50.3329 46.6054 47.7353 47.9336 45.4089C49.2617 43.0825 51.1201 41.0913 53.3611 39.5898C53.6837 39.3745 54.0149 39.1701 54.3547 38.9751L72.3912 28.645V50.2349L72.392 50.2341Z" fill="#282D3C" stroke="white" stroke-width="0.5"/>
</g>
<defs>
<clipPath id="clip0_12_1979">
<rect width="74" height="76" fill="white" transform="translate(0 0.964844)"/>
</clipPath>
</defs>
</svg>
