<svg width="16" height="26" viewBox="0 0 16 26" fill="none" xmlns="http://www.w3.org/2000/svg">
<g clip-path="url(#clip0_2_3150)">
<path d="M5.60224 5.44503H0V10.6632H5.60224V5.44503Z" fill="#181A20"/>
<path d="M13.7591 15.6998C13.8936 15.5637 13.9384 15.4276 13.9384 15.2461V11.3438C13.9384 11.1623 13.8936 11.0262 13.7591 10.8901C13.6247 10.7539 13.4902 10.7086 13.3109 10.7086H5.55742V15.9721H13.2661C13.4454 15.9267 13.6247 15.836 13.7591 15.6998Z" fill="#181A20"/>
<path d="M15.2829 20.7819H5.55742V15.9267H0V25.3647C0 25.5462 0.0448179 25.7278 0.179272 25.8185C0.313726 25.9546 0.448179 26 0.627451 26H15.2829C15.4622 26 15.6415 25.9546 15.7759 25.8185C15.9104 25.6824 15.9552 25.5462 15.9552 25.3647V21.4171C15.9552 21.281 15.9104 21.0995 15.7759 20.9634C15.5966 20.8272 15.4622 20.7819 15.2829 20.7819Z" fill="#181A20"/>
<path d="M0.672269 1.27051C1.0188 1.27051 1.29972 0.986094 1.29972 0.635253C1.29972 0.284412 1.0188 0 0.672269 0C0.325737 0 0.0448179 0.284412 0.0448179 0.635253C0.0448179 0.986094 0.325737 1.27051 0.672269 1.27051Z" fill="#181A20"/>
<path d="M0.672269 3.13089C1.0188 3.13089 1.29972 2.84648 1.29972 2.49564C1.29972 2.1448 1.0188 1.86038 0.672269 1.86038C0.325737 1.86038 0.0448179 2.1448 0.0448179 2.49564C0.0448179 2.84648 0.325737 3.13089 0.672269 3.13089Z" fill="#181A20"/>
<path d="M0.672269 5.03665C1.0188 5.03665 1.29972 4.75224 1.29972 4.4014C1.29972 4.05056 1.0188 3.76614 0.672269 3.76614C0.325737 3.76614 0.0448179 4.05056 0.0448179 4.4014C0.0448179 4.75224 0.325737 5.03665 0.672269 5.03665Z" fill="#181A20"/>
<path d="M2.5098 1.27051C2.85634 1.27051 3.13725 0.986094 3.13725 0.635253C3.13725 0.284412 2.85634 0 2.5098 0C2.16327 0 1.88235 0.284412 1.88235 0.635253C1.88235 0.986094 2.16327 1.27051 2.5098 1.27051Z" fill="#181A20"/>
<path d="M2.5098 3.13089C2.85634 3.13089 3.13725 2.84648 3.13725 2.49564C3.13725 2.1448 2.85634 1.86038 2.5098 1.86038C2.16327 1.86038 1.88235 2.1448 1.88235 2.49564C1.88235 2.84648 2.16327 3.13089 2.5098 3.13089Z" fill="#181A20"/>
<path d="M2.5098 5.03665C2.85634 5.03665 3.13725 4.75224 3.13725 4.4014C3.13725 4.05056 2.85634 3.76614 2.5098 3.76614C2.16327 3.76614 1.88235 4.05056 1.88235 4.4014C1.88235 4.75224 2.16327 5.03665 2.5098 5.03665Z" fill="#181A20"/>
<path d="M4.34734 1.27051C4.69387 1.27051 4.97479 0.986094 4.97479 0.635253C4.97479 0.284412 4.69387 0 4.34734 0C4.00081 0 3.71989 0.284412 3.71989 0.635253C3.71989 0.986094 4.00081 1.27051 4.34734 1.27051Z" fill="#181A20"/>
<path d="M4.34734 3.13089C4.69387 3.13089 4.97479 2.84648 4.97479 2.49564C4.97479 2.1448 4.69387 1.86038 4.34734 1.86038C4.00081 1.86038 3.71989 2.1448 3.71989 2.49564C3.71989 2.84648 4.00081 3.13089 4.34734 3.13089Z" fill="#181A20"/>
<path d="M4.34734 5.03665C4.69387 5.03665 4.97479 4.75224 4.97479 4.4014C4.97479 4.05056 4.69387 3.76614 4.34734 3.76614C4.00081 3.76614 3.71989 4.05056 3.71989 4.4014C3.71989 4.75224 4.00081 5.03665 4.34734 5.03665Z" fill="#181A20"/>
<path d="M6.18487 1.27051C6.53141 1.27051 6.81233 0.986094 6.81233 0.635253C6.81233 0.284412 6.53141 0 6.18487 0C5.83834 0 5.55742 0.284412 5.55742 0.635253C5.55742 0.986094 5.83834 1.27051 6.18487 1.27051Z" fill="#181A20"/>
<path d="M6.18487 3.13089C6.53141 3.13089 6.81233 2.84648 6.81233 2.49564C6.81233 2.1448 6.53141 1.86038 6.18487 1.86038C5.83834 1.86038 5.55742 2.1448 5.55742 2.49564C5.55742 2.84648 5.83834 3.13089 6.18487 3.13089Z" fill="#181A20"/>
<path d="M6.18487 5.03665C6.53141 5.03665 6.81233 4.75224 6.81233 4.4014C6.81233 4.05056 6.53141 3.76614 6.18487 3.76614C5.83834 3.76614 5.55742 4.05056 5.55742 4.4014C5.55742 4.75224 5.83834 5.03665 6.18487 5.03665Z" fill="#181A20"/>
<path d="M8.02241 1.27051C8.36894 1.27051 8.64986 0.986094 8.64986 0.635253C8.64986 0.284412 8.36894 0 8.02241 0C7.67588 0 7.39496 0.284412 7.39496 0.635253C7.39496 0.986094 7.67588 1.27051 8.02241 1.27051Z" fill="#181A20"/>
<path d="M8.02241 3.13089C8.36894 3.13089 8.64986 2.84648 8.64986 2.49564C8.64986 2.1448 8.36894 1.86038 8.02241 1.86038C7.67588 1.86038 7.39496 2.1448 7.39496 2.49564C7.39496 2.84648 7.67588 3.13089 8.02241 3.13089Z" fill="#181A20"/>
<path d="M8.02241 5.03665C8.36894 5.03665 8.64986 4.75224 8.64986 4.4014C8.64986 4.05056 8.36894 3.76614 8.02241 3.76614C7.67588 3.76614 7.39496 4.05056 7.39496 4.4014C7.39496 4.75224 7.67588 5.03665 8.02241 5.03665Z" fill="#181A20"/>
<path d="M9.85994 1.27051C10.2065 1.27051 10.4874 0.986094 10.4874 0.635253C10.4874 0.284412 10.2065 0 9.85994 0C9.51341 0 9.23249 0.284412 9.23249 0.635253C9.23249 0.986094 9.51341 1.27051 9.85994 1.27051Z" fill="#181A20"/>
<path d="M9.85994 3.13089C10.2065 3.13089 10.4874 2.84648 10.4874 2.49564C10.4874 2.1448 10.2065 1.86038 9.85994 1.86038C9.51341 1.86038 9.23249 2.1448 9.23249 2.49564C9.23249 2.84648 9.51341 3.13089 9.85994 3.13089Z" fill="#181A20"/>
<path d="M9.85994 5.03665C10.2065 5.03665 10.4874 4.75224 10.4874 4.4014C10.4874 4.05056 10.2065 3.76614 9.85994 3.76614C9.51341 3.76614 9.23249 4.05056 9.23249 4.4014C9.23249 4.75224 9.51341 5.03665 9.85994 5.03665Z" fill="#181A20"/>
<path d="M11.6975 1.27051C12.044 1.27051 12.3249 0.986094 12.3249 0.635253C12.3249 0.284412 12.044 0 11.6975 0C11.3509 0 11.07 0.284412 11.07 0.635253C11.07 0.986094 11.3509 1.27051 11.6975 1.27051Z" fill="#181A20"/>
<path d="M11.6975 3.13089C12.044 3.13089 12.3249 2.84648 12.3249 2.49564C12.3249 2.1448 12.044 1.86038 11.6975 1.86038C11.3509 1.86038 11.07 2.1448 11.07 2.49564C11.07 2.84648 11.3509 3.13089 11.6975 3.13089Z" fill="#181A20"/>
<path d="M11.6975 5.03665C12.044 5.03665 12.3249 4.75224 12.3249 4.4014C12.3249 4.05056 12.044 3.76614 11.6975 3.76614C11.3509 3.76614 11.07 4.05056 11.07 4.4014C11.07 4.75224 11.3509 5.03665 11.6975 5.03665Z" fill="#181A20"/>
<path d="M13.535 1.27051C13.8815 1.27051 14.1625 0.986094 14.1625 0.635253C14.1625 0.284412 13.8815 0 13.535 0C13.1885 0 12.9076 0.284412 12.9076 0.635253C12.9076 0.986094 13.1885 1.27051 13.535 1.27051Z" fill="#181A20"/>
<path d="M13.535 3.13089C13.8815 3.13089 14.1625 2.84648 14.1625 2.49564C14.1625 2.1448 13.8815 1.86038 13.535 1.86038C13.1885 1.86038 12.9076 2.1448 12.9076 2.49564C12.9076 2.84648 13.1885 3.13089 13.535 3.13089Z" fill="#181A20"/>
<path d="M13.535 5.03665C13.8815 5.03665 14.1625 4.75224 14.1625 4.4014C14.1625 4.05056 13.8815 3.76614 13.535 3.76614C13.1885 3.76614 12.9076 4.05056 12.9076 4.4014C12.9076 4.75224 13.1885 5.03665 13.535 5.03665Z" fill="#181A20"/>
<path d="M15.3725 1.27051C15.7191 1.27051 16 0.986094 16 0.635253C16 0.284412 15.7191 0 15.3725 0C15.026 0 14.7451 0.284412 14.7451 0.635253C14.7451 0.986094 15.026 1.27051 15.3725 1.27051Z" fill="#181A20"/>
<path d="M15.3725 3.13089C15.7191 3.13089 16 2.84648 16 2.49564C16 2.1448 15.7191 1.86038 15.3725 1.86038C15.026 1.86038 14.7451 2.1448 14.7451 2.49564C14.7451 2.84648 15.026 3.13089 15.3725 3.13089Z" fill="#181A20"/>
<path d="M15.3725 5.03665C15.7191 5.03665 16 4.75224 16 4.4014C16 4.05056 15.7191 3.76614 15.3725 3.76614C15.026 3.76614 14.7451 4.05056 14.7451 4.4014C14.7451 4.75224 15.026 5.03665 15.3725 5.03665Z" fill="#181A20"/>
</g>
<defs>
<clipPath id="clip0_2_3150">
<rect width="16" height="26" fill="white"/>
</clipPath>
</defs>
</svg>
