<svg width="34" height="44" viewBox="0 0 34 44" fill="none" xmlns="http://www.w3.org/2000/svg">
<path d="M26.6077 42.7607C24.081 42.7607 20.8149 42.7607 17.6103 42.7607C14.4058 42.7607 11.2013 42.7607 8.73627 42.7607H7.81189C4.17598 42.7607 1.21796 39.807 1.21796 36.1765V8.05494C1.21796 4.42437 4.17598 1.4707 7.81189 1.4707H15.7616C25.067 1.4707 32.647 9.03955 32.647 18.3313C32.647 22.3311 31.2296 26.2078 28.6413 29.2845C29.6889 30.6998 30.7982 32.1767 31.5377 33.2843C32.8318 35.1304 32.9551 37.5303 31.9691 39.4993C30.9215 41.53 28.8878 42.7607 26.6077 42.7607Z" stroke="#BAA7FC" stroke-miterlimit="10"/>
<path d="M26.6077 40.6075C24.081 40.6075 20.8149 40.6075 17.6104 40.6075C14.4058 40.6075 11.2013 40.6075 8.73629 40.6075H7.81191C5.34689 40.6075 3.37487 38.6384 3.37487 36.1771V8.05554C3.37487 5.59414 5.34689 3.625 7.81191 3.625H15.7616C23.8962 3.625 30.5517 10.2092 30.5517 18.3934C30.5517 22.5163 28.8262 26.393 25.8682 29.162C27.2239 30.885 28.703 32.9772 29.8122 34.5771C30.6133 35.7463 30.7366 37.2847 30.0587 38.5769C29.3808 39.8076 28.0251 40.6075 26.6077 40.6075Z" stroke="#6C3EF8" stroke-miterlimit="10"/>
<path d="M22.7254 28.8549C26.1148 26.5782 28.3333 22.763 28.3333 18.394C28.3333 11.4405 22.6637 5.7793 15.7001 5.7793H7.81199C6.51785 5.7793 5.53185 6.82537 5.53185 8.05607V35.3161V36.2391C5.53185 37.5314 6.57948 38.5159 7.81199 38.5159H8.73637C13.728 38.5159 21.5545 38.5159 26.6694 38.5159C27.2857 38.5159 27.9019 38.1467 28.21 37.5929C28.5182 37.0391 28.4565 36.3622 28.0868 35.8084C26.731 33.9624 24.3276 30.5779 22.7254 28.8549Z" fill="#6E40F8"/>
<path opacity="0.3" d="M19.6437 28.5454C26.1444 28.5454 31.4142 23.2833 31.4142 16.7923C31.4142 10.3011 26.1444 5.03906 19.6437 5.03906C13.143 5.03906 7.87322 10.3011 7.87322 16.7923C7.87322 23.2833 13.143 28.5454 19.6437 28.5454Z" fill="url(#paint0_radial_12_1769)"/>
<path opacity="0.2" d="M14.5908 22.7007C19.5939 22.7007 23.6497 18.5957 23.6497 13.532C23.6497 8.46828 19.5939 4.36328 14.5908 4.36328C9.58771 4.36328 5.53185 8.46828 5.53185 13.532C5.53185 18.5957 9.58771 22.7007 14.5908 22.7007Z" fill="url(#paint1_radial_12_1769)"/>
<defs>
<radialGradient id="paint0_radial_12_1769" cx="0" cy="0" r="1" gradientUnits="userSpaceOnUse" gradientTransform="translate(19.6598 16.7712) rotate(90) scale(11.7547 11.772)">
<stop stop-color="#E4DCFE"/>
<stop offset="1" stop-color="white" stop-opacity="0"/>
</radialGradient>
<radialGradient id="paint1_radial_12_1769" cx="0" cy="0" r="1" gradientUnits="userSpaceOnUse" gradientTransform="translate(14.6097 13.5111) rotate(90) scale(9.17628 9.07588)">
<stop stop-color="#E4DCFE"/>
<stop offset="1" stop-color="white" stop-opacity="0"/>
</radialGradient>
</defs>
</svg>
