<svg width="30" height="35" viewBox="0 0 30 35" fill="none" xmlns="http://www.w3.org/2000/svg">
<g clip-path="url(#clip0_1626_902)">
<path d="M25.5819 10.1695L22.8908 12.7681C27.3094 17.0348 27.3094 23.9001 22.8908 28.1026C18.4722 32.3694 11.3626 32.3694 7.01043 28.1026C2.59183 23.8359 2.59183 16.9706 7.01043 12.7681L14.0204 5.99904L15.0171 5.03662V-0.064209L4.45229 10.1375C-1.42811 15.8157 -1.42811 24.9908 4.45229 30.6691C10.3327 36.3474 19.8343 36.3474 25.6151 30.6691C31.4623 24.9908 31.4623 15.8799 25.5819 10.1695Z" fill="#B6B9C8"/>
<path d="M20.299 9.55991C21.3816 9.55991 22.2591 8.71252 22.2591 7.66718C22.2591 6.62184 21.3816 5.77441 20.299 5.77441C19.2164 5.77441 18.3389 6.62184 18.3389 7.66718C18.3389 8.71252 19.2164 9.55991 20.299 9.55991Z" fill="#B6B9C8"/>
</g>
<defs>
<clipPath id="clip0_1626_902">
<rect width="30" height="35" fill="white"/>
</clipPath>
</defs>
</svg>
