<svg width="135" height="16" viewBox="0 0 135 16" fill="none" xmlns="http://www.w3.org/2000/svg">
<path d="M0.517944 4C3.30519 5.59993 3.30519 10.4001 0.517944 12C3.30519 10.4001 7.48569 12.8001 7.48569 16C7.48569 12.8001 11.6662 10.4001 14.4534 12C11.6662 10.4001 11.6662 5.59993 14.4534 4C11.6662 5.59993 7.48569 3.19985 7.48569 0C7.48569 3.19985 3.30519 5.59993 0.517944 4Z" fill="#F0766B"/>
<path d="M30.5179 4C33.3052 5.59993 33.3052 10.4001 30.5179 12C33.3052 10.4001 37.4857 12.8001 37.4857 16C37.4857 12.8001 41.6662 10.4001 44.4534 12C41.6662 10.4001 41.6662 5.59993 44.4534 4C41.6662 5.59993 37.4857 3.19985 37.4857 0C37.4857 3.19985 33.3052 5.59993 30.5179 4Z" fill="#F0766B"/>
<path d="M60.5179 4C63.3052 5.59993 63.3052 10.4001 60.5179 12C63.3052 10.4001 67.4857 12.8001 67.4857 16C67.4857 12.8001 71.6662 10.4001 74.4534 12C71.6662 10.4001 71.6662 5.59993 74.4534 4C71.6662 5.59993 67.4857 3.19985 67.4857 0C67.4857 3.19985 63.3052 5.59993 60.5179 4Z" fill="#F0766B"/>
<path d="M90.5179 4C93.3052 5.59993 93.3052 10.4001 90.5179 12C93.3052 10.4001 97.4857 12.8001 97.4857 16C97.4857 12.8001 101.666 10.4001 104.453 12C101.666 10.4001 101.666 5.59993 104.453 4C101.666 5.59993 97.4857 3.19985 97.4857 0C97.4857 3.19985 93.3052 5.59993 90.5179 4Z" fill="#F0766B"/>
<path d="M120.518 4C123.305 5.59993 123.305 10.4001 120.518 12C123.305 10.4001 127.486 12.8001 127.486 16C127.486 12.8001 131.666 10.4001 134.453 12C131.666 10.4001 131.666 5.59993 134.453 4C131.666 5.59993 127.486 3.19985 127.486 0C127.486 3.19985 123.305 5.59993 120.518 4Z" fill="#F0766B"/>
</svg>
