<svg width="40" height="35" viewBox="0 0 40 35" fill="none" xmlns="http://www.w3.org/2000/svg">
<g clip-path="url(#clip0_2_2968)">
<path d="M39.9015 17.504C39.9015 14.9004 36.641 12.4331 31.6422 10.903C32.7958 5.80797 32.2831 1.75441 30.024 0.456626C29.5032 0.152209 28.8944 0.00801099 28.2295 0.00801099V1.79446C28.598 1.79446 28.8944 1.86656 29.1428 2.00275C30.2322 2.6276 30.7049 5.00687 30.3364 8.06706C30.2483 8.8201 30.1041 9.61318 29.9278 10.4223C28.3577 10.0378 26.6433 9.74136 24.8409 9.5491C23.7594 8.06706 22.6378 6.72122 21.5083 5.5436C24.1199 3.11627 26.5712 1.78645 28.2375 1.78645V0C26.0345 0 23.1505 1.57015 20.2345 4.29389C17.3185 1.58618 14.4346 0.0320439 12.2316 0.0320439V1.81849C13.8898 1.81849 16.3492 3.14031 18.9608 5.55161C17.8393 6.72923 16.7177 8.06706 15.6523 9.5491C13.8418 9.74136 12.1274 10.0378 10.5573 10.4303C10.373 9.62921 10.2368 8.85214 10.1407 8.10712C9.76418 5.04692 10.2288 2.66766 11.3103 2.03479C11.5506 1.89059 11.8631 1.8265 12.2316 1.8265V0.0400549C11.5586 0.0400549 10.9498 0.184253 10.4211 0.48867C8.16999 1.78645 7.6653 5.832 8.82689 10.911C3.84406 12.4491 0.599609 14.9084 0.599609 17.504C0.599609 20.1076 3.86008 22.575 8.85894 24.1051C7.70535 29.2 8.21806 33.2536 10.4772 34.5514C10.9979 34.8558 11.6067 35 12.2796 35C14.4826 35 17.3666 33.4298 20.2826 30.7061C23.1986 33.4138 26.0826 34.968 28.2856 34.968C28.9585 34.968 29.5673 34.8238 30.0961 34.5193C32.3471 33.2216 32.8518 29.176 31.6902 24.097C36.6571 22.5669 39.9015 20.0996 39.9015 17.504ZM29.4712 12.1607C29.1748 13.1941 28.8063 14.2596 28.3897 15.325C28.0613 14.6841 27.7168 14.0433 27.3403 13.4024C26.9718 12.7615 26.5792 12.1366 26.1867 11.5278C27.3243 11.696 28.4218 11.9043 29.4712 12.1607ZM25.8022 20.6924C25.1773 21.7739 24.5364 22.7993 23.8715 23.7526C22.6779 23.8567 21.4682 23.9128 20.2506 23.9128C19.0409 23.9128 17.8312 23.8567 16.6456 23.7606C15.9807 22.8073 15.3318 21.7899 14.707 20.7164C14.0981 19.667 13.5454 18.6015 13.0407 17.528C13.5374 16.4546 14.0981 15.3811 14.6989 14.3317C15.3238 13.2502 15.9647 12.2248 16.6296 11.2715C17.8232 11.1673 19.0329 11.1112 20.2506 11.1112C21.4602 11.1112 22.6699 11.1673 23.8555 11.2634C24.5204 12.2168 25.1693 13.2341 25.7942 14.3076C26.403 15.3571 26.9558 16.4225 27.4604 17.496C26.9558 18.5695 26.403 19.6429 25.8022 20.6924ZM28.3897 19.6509C28.8223 20.7244 29.1908 21.7979 29.4952 22.8393C28.4458 23.0957 27.3403 23.312 26.1947 23.4802C26.5872 22.8634 26.9798 22.2305 27.3483 21.5816C27.7168 20.9407 28.0613 20.2918 28.3897 19.6509ZM20.2666 28.1987C19.5216 27.4296 18.7765 26.5724 18.0395 25.6352C18.7605 25.6672 19.4975 25.6912 20.2425 25.6912C20.9956 25.6912 21.7406 25.6752 22.4696 25.6352C21.7486 26.5724 21.0036 27.4296 20.2666 28.1987ZM14.3064 23.4802C13.1688 23.312 12.0713 23.1037 11.0219 22.8473C11.3183 21.8139 11.6868 20.7485 12.1034 19.683C12.4318 20.3239 12.7763 20.9648 13.1528 21.6056C13.5293 22.2465 13.9139 22.8714 14.3064 23.4802ZM20.2265 6.80934C20.9715 7.57839 21.7166 8.43557 22.4536 9.37285C21.7326 9.34081 20.9956 9.31678 20.2506 9.31678C19.4975 9.31678 18.7525 9.3328 18.0235 9.37285C18.7445 8.43557 19.4895 7.57839 20.2265 6.80934ZM14.2984 11.5278C13.9059 12.1447 13.5133 12.7775 13.1448 13.4264C12.7763 14.0673 12.4318 14.7082 12.1034 15.3491C11.6708 14.2756 11.3023 13.2021 10.9979 12.1607C12.0473 11.9123 13.1528 11.696 14.2984 11.5278ZM7.04845 21.5576C4.21256 20.3479 2.37805 18.7617 2.37805 17.504C2.37805 16.2463 4.21256 14.6521 7.04845 13.4504C7.7374 13.154 8.49043 12.8897 9.2675 12.6413C9.72412 14.2115 10.3249 15.8457 11.07 17.52C10.333 19.1863 9.74014 20.8125 9.29153 22.3747C8.49844 22.1263 7.74541 21.854 7.04845 21.5576ZM11.3584 33.0053C10.2689 32.3804 9.79622 30.0011 10.1647 26.9409C10.2528 26.1879 10.397 25.3948 10.5733 24.5857C12.1434 24.9702 13.8578 25.2667 15.6603 25.4589C16.7417 26.9409 17.8633 28.2868 18.9928 29.4644C16.3813 31.8917 13.9299 33.2216 12.2636 33.2216C11.9031 33.2136 11.5987 33.1415 11.3584 33.0053ZM30.3604 26.9009C30.7369 29.9611 30.2723 32.3404 29.1908 32.9732C28.9505 33.1174 28.6381 33.1815 28.2696 33.1815C26.6113 33.1815 24.1519 31.8597 21.5403 29.4484C22.6619 28.2708 23.7834 26.9329 24.8489 25.4509C26.6593 25.2586 28.3737 24.9622 29.9439 24.5697C30.1281 25.3788 30.2723 26.1559 30.3604 26.9009ZM33.4447 21.5576C32.7557 21.854 32.0027 22.1183 31.2256 22.3667C30.769 20.7965 30.1682 19.1623 29.4231 17.488C30.1601 15.8217 30.753 14.1955 31.2016 12.6333C31.9947 12.8817 32.7477 13.154 33.4527 13.4504C36.2886 14.6601 38.1231 16.2463 38.1231 17.504C38.1151 18.7617 36.2805 20.3559 33.4447 21.5576Z" fill="#B6B9C8"/>
<path d="M20.2421 21.1651C22.264 21.1651 23.9031 19.526 23.9031 17.504C23.9031 15.4821 22.264 13.843 20.2421 13.843C18.2201 13.843 16.5811 15.4821 16.5811 17.504C16.5811 19.526 18.2201 21.1651 20.2421 21.1651Z" fill="#B6B9C8"/>
</g>
<defs>
<clipPath id="clip0_2_2968">
<rect width="39.3019" height="35" fill="white" transform="translate(0.599609)"/>
</clipPath>
</defs>
</svg>
