<svg width="15" height="16" viewBox="0 0 15 16" fill="none" xmlns="http://www.w3.org/2000/svg">
<path d="M11.1099 11.1246C10.3038 11.7695 9.17516 12.2532 8.04658 12.2532C5.46695 12.2532 3.69347 10.3185 3.69347 7.73887C3.69347 5.15925 5.46695 3.38576 8.04658 3.38576C9.17516 3.38576 10.3038 3.70821 11.1099 4.51434L11.5936 4.99802L14.1732 2.57962L13.5283 2.09594C12.0772 0.806133 10.1425 0 8.04658 0C3.53224 0 0.146484 3.38576 0.146484 7.9001C0.146484 12.4144 3.53224 15.8002 8.04658 15.8002C10.1425 15.8002 12.0772 14.9941 13.5283 13.7043L14.1732 13.2206L11.5936 10.6409L11.1099 11.1246Z" fill="#282D3C"/>
<path d="M7.88529 10.4798C9.30996 10.4798 10.4649 9.32486 10.4649 7.90018C10.4649 6.4755 9.30996 5.32056 7.88529 5.32056C6.46061 5.32056 5.30566 6.4755 5.30566 7.90018C5.30566 9.32486 6.46061 10.4798 7.88529 10.4798Z" fill="#EF4335"/>
</svg>
