<svg width="75" height="68" viewBox="0 0 75 68" fill="none" xmlns="http://www.w3.org/2000/svg">
<path d="M0 54.0079V62.2931C0 65.6572 2.29323 67.8014 5.63312 67.8014C9.14626 67.8014 11.2966 65.5402 11.2966 62.0662V54.0079H8.32309V61.9148C8.32309 63.8091 7.36913 64.9838 5.66482 64.9838C3.79698 64.9838 2.97359 63.6329 2.97359 62.0662V54.0079H0ZM12.7423 54.1224V67.6663H17.4784C20.1015 67.6663 22.3304 66.3284 22.3304 63.675C22.3304 60.9053 19.9067 60.2913 19.9067 60.2913C19.9067 60.2913 21.7014 59.7928 21.7014 57.4232C21.7014 55.0552 19.433 54.1224 17.4784 54.1224H12.7423ZM15.7381 56.6949H17.1758C18.1735 56.6949 18.812 57.2204 18.812 58.1349C18.812 58.9529 18.2703 59.5702 17.2514 59.5702H15.7382V56.6949H15.7381ZM15.7381 61.6888H17.3271C18.8212 61.6888 19.3393 62.4563 19.3393 63.3723C19.3393 64.4381 18.6691 65.0629 17.4784 65.0629H15.7382V61.6889L15.7381 61.6888ZM23.4559 54.1214H26.4446V67.6653H23.4559V54.1214ZM56.0671 67.6653H53.0784V54.1214H62.4607V56.921H56.0671V60.0232H61.8932V62.2931H56.0671V67.6653ZM63.5579 54.1214V56.921H67.4167V67.6653H70.4433V56.921H74.2265V54.1214H63.5579ZM29.8566 63.1618L27.4823 64.8978C27.4823 64.8978 28.3027 67.8984 32.4157 67.8984C35.1547 67.8984 37.1702 66.3 37.1702 63.4899C37.1702 58.9613 30.8379 59.922 30.8379 57.5931C30.8379 56.9802 31.383 56.4388 32.3889 56.4388C34.0028 56.4388 34.6163 58.022 34.6163 58.022L36.9912 56.3553C36.9912 56.3553 36.0636 53.8826 32.5082 53.8826C29.5862 53.8826 28.0341 55.7571 28.0341 57.6915C28.0341 62.3065 34.182 61.3048 34.182 63.7268C34.182 64.5442 33.5379 65.1447 32.5348 65.1378C30.5474 65.1378 29.8566 63.1618 29.8566 63.1618ZM44.8877 53.8763C41.3681 53.8763 39.7993 55.7868 39.7993 55.7868L40.2533 56.2408C40.2533 56.2408 37.9763 57.8582 37.9763 61.3316C37.9763 65.3283 41.0587 67.8954 44.9043 67.8954C49.3726 67.8954 51.9079 64.5984 51.9079 60.8918C51.9079 56.9392 49.0134 53.8763 44.8877 53.8763ZM44.9515 56.6877C47.3379 56.6877 48.8861 58.5117 48.8861 60.88C48.8861 63.2237 47.3564 65.0983 44.9515 65.0983C42.5756 65.0983 41.0146 63.4391 41.0146 61.237C41.0146 59.2328 42.3719 58.3594 42.3719 58.3594L41.8801 57.8676C41.8801 57.8676 42.9266 56.6877 44.9515 56.6877ZM35.7412 0C20.3913 0 13.7657 13.663 13.7657 13.663L15.716 15.0592C15.716 15.0592 13.2617 19.7265 13.3297 25.7129C13.3297 37.9336 23.0576 49.4455 37.378 49.4455C50.3875 49.4455 61.1342 38.8566 61.1342 25.743C61.1342 8.63989 47.8712 0 35.7413 0H35.7412ZM35.8744 4.16915C47.8672 4.16915 57.1734 13.8334 57.1734 25.0686C57.1734 36.9786 48.2157 45.2613 37.7775 45.2613C30.0952 45.2613 23.165 39.4111 23.165 31.3899C23.165 26.7572 25.6274 23.5273 28.3867 21.8059L28.7905 22.244C28.0354 22.8349 25.8822 26.2936 25.8822 29.6931C25.8822 36.004 30.8312 40.3747 37.0665 40.3747C45.0092 40.3747 50.3064 33.6003 50.3064 25.7345C50.3064 16.5826 42.2281 8.81298 32.5064 8.81298C27.1293 8.81298 22.5656 11.1254 19.9432 13.1669L19.5351 12.7975C22.9659 7.50756 28.9072 4.16915 35.8744 4.16915ZM32.2959 12.9242C38.4998 12.9242 44.5567 17.0284 46.0685 22.854L45.5186 23.0624C42.8041 19.4777 38.3561 16.5069 33.1035 16.5069C23.4383 16.5069 18.3624 25.2896 19.1076 32.625L18.5384 32.8334C18.5384 32.8334 17.4709 30.4779 17.4709 27.6848C17.4709 19.5963 24.1133 12.9242 32.2959 12.9242ZM36.3964 23.0752C39.3335 23.0752 41.6825 25.4559 41.6825 28.2819C41.6825 30.6205 40.181 32.0065 40.181 32.0065L41.9595 33.25C41.9595 33.25 40.1959 36.0188 36.5961 36.0188C33.1527 36.0188 30.1072 33.2394 30.1072 29.5019C30.1072 25.6507 33.4198 23.0752 36.3964 23.0752Z" fill="#B6B9C8"/>
</svg>
